<svg xmlns="http://www.w3.org/2000/svg" viewBox="0 0 1200 967" font-family="Inter,system-ui,sans-serif"><defs><clipPath id="gleba"><path d="M246.1,265.3L247.3,265.5L247.3,265.5L257.1,267.3L258.1,267.5L259.1,267.9L278.0,275.5L281.5,276.9L279.1,269.2L276.7,262.4L274.2,255.5L272.6,250.9L264.6,234.3L264.0,233.0L258.9,225.5L251.5,215.0L251.0,214.3L247.5,210.0L237.7,197.9L236.4,196.6L234.3,194.2L224.4,183.2L221.5,179.9L219.8,178.0L206.5,163.2L205.3,161.8L191.6,146.6L190.8,145.6L185.0,139.2L184.1,138.0L175.7,125.4L166.9,112.0L160.8,102.9L156.2,95.8L145.9,80.3L138.9,69.8L138.4,68.9L138.0,68.0L137.6,67.0L137.4,66.0L137.2,64.9L137.2,63.9L137.3,62.8L137.4,61.8L137.7,60.8L138.1,59.8L138.5,58.9L139.1,58.0L139.7,57.2L140.4,56.4L141.2,55.7L142.1,55.1L143.0,54.6L144.0,54.2L144.9,53.9L146.0,53.6L147.0,53.5L148.1,53.5L155.0,53.7L199.8,55.1L229.7,56.1L230.5,56.1L263.8,47.5L296.6,38.9L297.7,38.7L298.8,38.6L300.0,38.6L387.8,44.9L450.3,43.4L511.3,41.0L512.3,41.0L513.2,41.1L514.2,41.3L515.1,41.6L516.0,41.9L516.9,42.4L517.7,42.9L518.5,43.5L632.6,140.2L639.8,146.3L639.8,146.3L639.8,146.3L640.0,146.5L640.1,146.5L653.9,157.6L660.4,162.7L668.8,169.4L680.8,178.9L682.1,180.0L683.8,181.3L687.3,184.1L697.6,192.3L701.0,194.4L712.5,201.3L727.8,210.6L742.4,219.4L754.6,226.7L755.1,227.1L756.0,227.7L756.8,228.3L757.5,229.0L758.1,229.8L758.7,230.6L759.2,231.5L759.6,232.5L759.9,233.4L760.1,234.4L760.2,235.4L760.2,236.4L760.0,243.5L759.9,244.5L759.7,245.5L759.5,246.5L759.1,247.4L758.7,248.3L758.1,249.2L757.5,250.0L750.1,258.7L745.0,264.8L736.8,274.5L736.9,274.5L755.7,281.9L778.2,290.7L800.5,299.5L819.5,306.9L845.3,317.1L860.7,323.1L875.2,328.8L902.0,339.3L904.2,340.2L950.2,339.2L951.2,339.3L952.3,339.4L953.3,339.6L954.2,339.9L955.2,340.4L956.1,340.9L956.9,341.5L957.7,342.1L958.4,342.9L959.0,343.7L959.6,344.6L960.1,345.5L970.5,369.4L981.1,393.4L985.5,403.3L995.3,425.8L1000.4,437.3L1009.6,458.2L1015.3,471.3L1018.0,477.3L1018.4,478.4L1022.4,491.8L1030.7,518.9L1036.6,538.5L1036.7,538.7L1037.2,540.5L1045.7,570.4L1051.0,589.1L1052.7,595.0L1060.4,618.3L1065.3,622.6L1067.4,623.0L1104.6,630.2L1142.1,637.5L1152.9,639.6L1153.9,639.8L1154.8,640.1L1155.7,640.6L1156.6,641.1L1157.4,641.7L1158.2,642.3L1158.9,643.1L1159.5,643.9L1160.1,644.8L1160.5,645.7L1160.9,646.6L1161.1,647.6L1161.3,648.6L1161.4,649.6L1161.4,650.6L1161.3,651.6L1161.0,652.6L1160.7,653.6L1160.3,654.5L1159.8,655.4L1159.3,656.3L1158.6,657.0L1157.9,657.8L1147.1,667.4L1132.1,680.8L1117.2,694.0L1113.9,697.0L1102.3,707.4L1095.8,713.2L1087.3,720.7L1084.2,723.5L1077.9,729.3L1072.5,734.2L1060.2,745.5L1057.6,747.8L1042.5,761.7L1027.7,775.1L1024.7,777.9L1024.1,778.5L1023.3,779.1L1022.5,779.7L1021.6,780.2L1020.6,780.6L994.4,790.3L978.6,796.1L949.6,806.9L935.0,812.3L919.8,818.0L891.3,828.5L624.8,927.4L623.8,927.7L622.8,927.9L621.8,928.0L620.7,928.0L619.7,928.0L618.7,927.8L617.7,927.5L616.7,927.1L615.8,926.6L614.9,926.0L614.1,925.4L613.4,924.7L612.7,923.9L612.1,923.0L611.6,922.1L594.1,885.7L589.3,881.5L579.8,876.3L535.1,852.8L498.6,836.0L497.5,835.4L494.9,833.8L472.7,823.1L410.6,803.0L348.7,784.7L283.2,768.3L283.2,768.3L233.7,755.5L197.1,746.0L196.1,745.7L195.2,745.3L194.2,744.8L193.4,744.2L192.6,743.5L166.4,718.8L165.7,718.1L165.1,717.4L143.3,687.3L113.0,646.3L88.3,628.3L43.7,601.6L42.9,601.1L42.1,600.4L41.4,599.7L40.7,598.9L40.1,598.1L39.6,597.2L39.2,596.2L38.9,595.2L38.7,594.2L38.6,593.2L38.6,592.2L38.7,591.2L38.9,590.2L114.8,265.7L118.0,252.3L118.3,251.3L118.7,250.3L119.2,249.4L119.8,248.5L120.4,247.6L121.2,246.9L122.0,246.2L122.9,245.6L123.9,245.1L124.8,244.7L125.9,244.5L126.9,244.3L128.0,244.2L129.1,244.2L130.1,244.4L156.5,249.1L204.6,257.8L227.3,261.9L246.1,265.3Z" fill-rule="evenodd"/></clipPath></defs><path d="M244.2,275.6L245.4,275.8L255.2,277.6L274.1,285.3L289.0,291.3L298.1,295.0L295.2,285.6L295.2,285.6L294.8,284.3L289.1,265.9L289.0,265.8L286.6,258.9L286.6,258.9L286.6,258.9L284.1,251.9L282.3,246.8L274.1,229.7L273.1,227.7L267.5,219.6L260.0,208.6L259.2,207.7L255.7,203.4L245.7,191.1L244.2,189.5L242.1,187.2L232.3,176.2L229.3,172.9L227.6,171.0L214.4,156.2L213.1,154.8L199.5,139.5L198.6,138.6L192.9,132.2L184.5,119.6L175.7,106.2L169.6,97.0L164.9,90.0L154.7,74.5L147.7,64.0L154.7,64.2L199.5,65.7L229.3,66.6L231.6,66.7L266.5,57.6L299.2,49.1L387.5,55.4L450.7,53.9L511.7,51.5L625.8,148.3L633.0,154.4L633.0,154.4L633.3,154.6L633.5,154.8L647.4,165.8L653.9,171.0L662.3,177.7L674.2,187.2L674.2,187.2L675.6,188.2L677.2,189.5L677.2,189.5L680.7,192.3L680.7,192.3L691.6,201.0L695.6,203.4L707.1,210.3L722.3,219.6L737.0,228.4L749.1,235.8L749.7,236.1L749.5,243.2L742.1,251.9L737.0,258.0L728.4,268.1L722.0,275.6L719.3,278.9L722.0,280.0L733.1,284.3L751.9,291.7L774.3,300.5L796.7,309.3L815.6,316.7L841.5,326.9L856.9,332.9L871.3,338.6L898.1,349.1L902.3,350.7L950.4,349.7L960.9,373.6L971.5,397.7L975.8,407.6L985.7,430.1L990.8,441.6L999.9,462.4L1005.7,475.5L1008.3,481.5L1012.4,494.8L1020.6,522.0L1026.6,541.5L1027.1,543.4L1035.6,573.3L1040.8,592.0L1042.6,598.1L1050.5,621.9L1051.3,624.4L1051.3,624.4L1060.5,632.4L1065.4,633.4L1102.6,640.6L1140.1,647.8L1150.9,649.9L1140.1,659.5L1125.0,672.9L1110.2,686.2L1106.9,689.1L1095.3,699.5L1088.8,705.3L1080.3,712.8L1077.1,715.7L1070.8,721.5L1065.4,726.4L1053.1,737.7L1050.5,740.1L1035.4,753.9L1020.6,767.4L1017.6,770.1L1017.0,770.7L990.8,780.4L975.0,786.3L946.0,797.0L931.3,802.5L916.1,808.1L887.7,818.7L621.1,917.5L602.6,879.1L595.3,872.8L584.8,867.1L539.7,843.3L503.0,826.4L499.9,824.5L476.7,813.3L413.7,793.0L351.4,774.5L285.8,758.1L236.4,745.3L199.8,735.8L173.6,711.2L151.8,681.1L120.5,638.8L94.1,619.5L49.1,592.6L125.1,268.1L128.2,254.7L154.7,259.5L202.7,268.1L225.4,272.2L244.2,275.6ZM677.2,189.5L677.2,189.5L677.2,189.5L677.2,189.5ZM453.3,154.4L453.3,138.6L453.3,154.4L453.3,154.4ZM438.3,300.5L438.3,259.7L438.3,259.7L438.3,300.5Z" fill="#f4eee1" fill-rule="evenodd"/><path d="M51.9,580.8L54.6,583.9L59.1,588.1L65.5,593.7L73.1,600.2L80.6,606.5L86.8,611.8L90.9,615.2L93.4,617.3L95.2,618.9L97.4,620.8L100.5,623.6L104.6,627.1L104.8,627.3" fill="none" stroke="#c9bda5" stroke-width="0.9" stroke-opacity="0.45"/><path d="M614.0,763.4L607.2,759.1L598.7,753.5L589.5,747.6L580.6,741.7L572.9,736.7L566.5,732.5L561.5,729.1L557.7,726.6L555.2,724.9L553.3,723.8L551.4,723.1L548.8,722.6L545.1,722.1L540.4,721.4L535.4,720.5L530.4,719.3L525.7,717.8L521.0,716.0L515.6,713.9L508.9,711.7L500.6,709.4L491.2,707.2L481.4,705.2L472.0,703.5L463.4,702.2L455.3,701.2L447.0,700.4L438.1,699.6L427.9,698.8L416.9,697.9L405.6,696.9L394.5,695.8L384.1,694.6L374.0,693.5L363.7,692.4L352.9,691.5L341.2,690.8L328.8,690.2L316.3,689.6L304.2,688.8L292.5,687.8L280.6,686.2L267.5,683.8L252.4,680.4L234.5,675.8L215.3,670.1L196.2,663.6L178.8,656.6L164.6,649.1L153.0,641.7L143.7,634.4L135.8,627.6L128.8,621.5L122.7,616.1L117.4,611.4L113.1,607.3L109.4,603.7L106.0,600.2L102.1,596.3L97.0,591.5L90.4,585.6L82.8,579.0L75.3,572.2L68.5,565.7L63.3,560.1L59.4,554.9L58.3,553.3" fill="none" stroke="#c9bda5" stroke-width="0.9" stroke-opacity="0.45"/><path d="M600.8,825.5L593.3,820.7L583.1,814.1L571.7,806.6L560.4,799.3L550.6,792.8L542.5,787.5L536.1,783.2L531.4,780.0L528.2,777.9L526.2,776.5L524.6,775.8L523.1,775.3L521.1,774.9L518.6,774.4L515.6,773.6L512.0,772.4L507.9,770.7L502.9,768.5L496.4,765.9L488.1,763.2L477.7,760.3L466.4,757.6L455.2,755.2L445.5,753.3L438.1,752.0L431.9,751.1L425.7,750.4L417.8,749.8L407.5,748.9L395.7,748.0L383.8,747.0L373.4,746.1L365.4,745.4L358.8,744.8L352.1,744.3L343.8,743.9L332.8,743.4L319.6,743.0L305.3,742.3L290.9,741.4L277.2,740.2L264.6,738.8L253.1,737.1L242.9,735.3L234.2,733.5L226.7,731.8L220.4,730.2L215.2,728.8L210.8,727.9L206.9,727.1L203.1,726.4L199.0,725.6L194.3,724.7L188.9,723.6L186.1,723.0" fill="none" stroke="#c9bda5" stroke-width="0.9" stroke-opacity="0.45"/><path d="M603.0,815.2L595.6,810.4L585.7,804.0L574.6,796.8L563.8,789.7L554.3,783.5L546.5,778.3L540.3,774.2L535.8,771.1L532.7,769.0L530.7,767.7L529.1,767.0L527.4,766.5L525.1,766.1L522.3,765.6L518.9,764.8L515.1,763.6L510.9,761.9L505.9,759.7L499.6,757.2L491.5,754.6L481.6,751.8L470.5,749.2L459.6,746.9L449.9,745.0L442.3,743.7L435.8,742.8L429.2,742.1L421.2,741.4L410.9,740.6L399.2,739.6L387.4,738.7L376.9,737.7L368.5,736.9L361.3,736.2L354.1,735.7L345.3,735.1L334.2,734.7L321.2,734.2L307.2,733.5L293.1,732.7L279.7,731.5L267.0,729.9L254.6,728.0L242.3,725.5L230.0,722.7L217.8,719.6L206.2,716.6L195.5,714.0L185.9,711.9L177.3,710.4L172.5,709.6" fill="none" stroke="#c9bda5" stroke-width="0.9" stroke-opacity="0.45"/><path d="M605.2,804.8L598.0,800.2L588.3,793.9L577.6,786.9L567.1,780.1L558.0,774.1L550.5,769.1L544.6,765.2L540.2,762.2L537.2,760.2L535.2,758.9L533.6,758.2L531.7,757.7L529.1,757.3L525.9,756.8L522.2,755.9L518.2,754.7L513.9,753.1L508.9,751.0L502.8,748.6L495.0,746.0L485.4,743.4L474.6,740.8L463.9,738.6L454.3,736.7L446.5,735.4L439.7,734.5L432.8,733.7L424.6,733.0L414.3,732.2L402.7,731.3L391.0,730.3L380.4,729.4L371.6,728.5L363.9,727.7L356.0,727.0L346.9,726.4L335.6,725.9L322.7,725.4L309.0,724.7L295.3,723.9L282.2,722.7L269.4,721.1L256.0,718.8L241.6,715.7L225.8,711.8L209.6,707.5L194.4,703.4L181.5,699.9L171.9,697.5L164.6,695.9L162.3,695.5" fill="none" stroke="#c9bda5" stroke-width="0.9" stroke-opacity="0.45"/><path d="M607.4,794.5L600.3,789.9L590.9,783.8L580.6,777.1L570.5,770.5L561.7,764.8L554.5,760.0L548.8,756.1L544.6,753.3L541.7,751.4L539.7,750.2L538.0,749.4L536.0,749.0L533.1,748.5L529.5,747.9L525.5,747.1L521.2,745.9L516.8,744.2L511.9,742.2L506.0,739.9L498.5,737.4L489.2,734.9L478.8,732.4L468.3,730.2L458.7,728.4L450.7,727.1L443.6,726.1L436.3,725.4L427.9,724.7L417.7,723.9L406.3,722.9L394.7,721.9L383.9,721.0L374.7,720.0L366.4,719.1L357.9,718.3L348.4,717.7L337.0,717.1L324.2,716.6L310.8,716.0L297.5,715.1L284.7,714.0L271.7,712.2L257.5,709.6L241.0,705.9L221.7,701.0L201.5,695.5L182.6,690.2L167.6,685.8L157.9,683.1L152.1,681.5" fill="none" stroke="#c9bda5" stroke-width="0.9" stroke-opacity="0.45"/><path d="M622.8,722.0L616.5,718.0L609.1,713.2L601.4,708.2L594.1,703.4L587.7,699.2L582.5,695.8L578.3,693.0L575.3,690.9L573.2,689.5L571.4,688.6L569.2,688.0L565.9,687.5L561.0,686.8L555.0,686.1L548.6,685.1L542.6,683.9L537.6,682.5L533.1,680.9L528.3,679.2L522.7,677.4L515.8,675.5L507.7,673.6L498.9,671.9L489.6,670.4L480.3,669.1L470.9,668.0L461.3,667.0L451.5,666.2L441.5,665.3L431.0,664.4L420.1,663.4L408.6,662.2L396.6,660.8L384.1,659.2L371.5,657.8L359.0,656.6L346.8,655.7L335.0,655.0L323.7,654.4L313.0,653.8L302.8,652.8L292.4,651.4L281.0,649.4L267.7,646.4L252.1,642.4L235.3,637.4L218.6,631.7L203.5,625.6L191.0,619.1L180.9,612.5L172.7,606.2L165.8,600.2L159.7,594.8L154.0,589.7L148.6,584.6L143.0,578.9L137.2,572.6L131.1,565.6L124.5,558.4L117.5,551.1L110.0,543.9L102.4,536.6L94.7,529.1L87.5,521.0L80.8,512.4L74.8,503.6L71.3,498.0" fill="none" stroke="#c9bda5" stroke-width="0.9" stroke-opacity="0.45"/><path d="M410.9,792.1L414.3,792.9L430.3,796.4L448.5,800.6L465.3,804.9L478.1,808.8L487.1,812.1L493.0,814.7L496.7,816.7L499.1,817.9L500.5,818.6L501.2,819.0L501.7,819.2L502.4,819.7L503.7,820.6L506.3,822.4L510.8,825.5L517.4,830.0L525.3,835.2L532.1,839.8" fill="none" stroke="#c9bda5" stroke-width="0.9" stroke-opacity="0.45"/><path d="M594.1,856.5L586.4,851.5L575.3,844.4L562.7,836.2L550.3,828.0L539.5,820.9L530.5,815.0L523.5,810.3L518.2,806.7L514.7,804.4L512.6,802.9L511.3,802.1L510.3,801.7L509.2,801.3L507.7,800.9L505.7,800.2L502.9,799.0L499.0,797.1L493.8,794.7L486.8,791.9L477.7,788.9L466.3,785.8L454.0,782.8L442.1,780.2L432.3,778.2L425.4,776.8L420.2,776.0L415.0,775.4L407.7,774.8L397.3,774.0L385.0,773.1L372.9,772.1L362.8,771.3L356.1,770.8L352.1,770.5L349.4,770.3L346.6,770.2L342.6,770.1L337.4,770.0L332.9,769.9" fill="none" stroke="#c9bda5" stroke-width="0.9" stroke-opacity="0.45"/><path d="M627.2,701.4L621.1,697.4L614.3,693.0L607.3,688.5L600.8,684.2L595.1,680.5L590.5,677.4L586.8,674.9L584.1,673.1L582.2,671.9L580.4,671.0L578.1,670.4L574.5,669.9L569.0,669.2L562.2,668.4L555.2,667.4L548.8,666.2L543.5,664.9L539.1,663.4L534.7,661.9L529.7,660.2L523.4,658.5L516.0,656.8L507.6,655.2L498.4,653.8L488.7,652.5L478.7,651.4L468.4,650.4L458.3,649.5L448.3,648.6L438.1,647.7L427.4,646.7L415.7,645.4L402.8,643.8L389.2,642.1L375.4,640.5L362.0,639.1L349.6,638.1L338.0,637.4L327.4,636.9L317.4,636.2L307.9,635.4L298.3,634.1L287.7,632.2L275.4,629.4L260.9,625.6L245.3,621.1L229.8,615.8L215.8,610.1L204.2,604.0L194.8,598.0L187.2,592.1L180.8,586.5L175.1,581.5L169.7,576.6L164.1,571.2L158.0,564.8L151.1,557.0L143.6,548.4L135.7,539.5L127.7,530.9L119.8,523.0L112.1,515.5L104.5,507.6L96.9,498.7L89.5,488.5L82.5,478.0L77.8,470.3" fill="none" stroke="#c9bda5" stroke-width="0.9" stroke-opacity="0.45"/><path d="M631.6,680.7L625.7,676.9L619.5,672.8L613.3,668.8L607.5,665.0L602.6,661.8L598.5,659.1L595.2,656.9L592.8,655.3L591.2,654.2L589.5,653.5L587.1,652.9L583.0,652.3L576.9,651.6L569.5,650.7L561.8,649.7L554.9,648.5L549.5,647.3L545.1,645.9L541.1,644.5L536.6,643.0L531.0,641.5L524.2,640.0L516.3,638.6L507.3,637.2L497.2,635.9L486.4,634.7L475.6,633.7L465.0,632.7L455.1,631.9L445.2,631.0L434.6,630.0L422.7,628.6L409.0,626.9L394.2,625.0L379.2,623.2L365.0,621.6L352.3,620.6L341.1,619.8L331.0,619.3L321.8,618.7L313.1,617.9L304.2,616.7L294.4,614.9L283.1,612.4L269.7,608.9L255.3,604.7L241.0,599.9L228.1,594.6L217.4,589.0L208.8,583.4L201.8,578.0L195.8,572.9L190.5,568.2L185.3,563.4L179.7,557.8L173.0,550.6L165.0,541.5L156.1,531.1L146.9,520.5L137.9,510.6L129.6,502.1L121.9,494.3L114.2,486.0L106.4,476.3L98.2,464.6L90.3,452.3L84.3,442.5" fill="none" stroke="#c9bda5" stroke-width="0.9" stroke-opacity="0.45"/><path d="M636.0,660.0L630.4,656.3L624.7,652.7L619.2,649.1L614.3,645.9L610.0,643.1L606.5,640.7L603.7,638.9L601.6,637.5L600.1,636.5L598.5,635.9L596.0,635.3L591.6,634.8L584.9,634.0L576.8,633.1L568.4,632.0L561.0,630.8L555.4,629.7L551.2,628.4L547.5,627.2L543.5,625.9L538.6,624.6L532.5,623.2L525.0,621.9L516.1,620.6L505.6,619.3L494.2,618.1L482.7,617.0L471.8,616.0L461.9,615.2L452.2,614.3L441.9,613.2L429.8,611.8L415.3,610.0L399.3,607.9L383.1,605.9L368.0,604.2L355.1,603.0L344.2,602.3L334.7,601.7L326.2,601.2L318.2,600.4L310.1,599.4L301.1,597.7L290.7,595.4L278.5,592.2L265.3,588.3L252.2,583.9L240.4,579.1L230.6,574.0L222.7,568.9L216.3,563.9L210.9,559.2L206.0,554.9L201.0,550.2L195.2,544.4L188.0,536.4L178.9,526.0L168.7,513.9L158.1,501.6L148.1,490.4L139.4,481.2L131.6,473.1L124.0,464.5L115.9,454.0L106.9,440.8L98.0,426.7L90.8,414.8" fill="none" stroke="#c9bda5" stroke-width="0.9" stroke-opacity="0.45"/><path d="M640.4,639.3L635.0,635.8L629.9,632.5L625.2,629.4L621.0,626.7L617.4,624.3L614.5,622.4L612.1,620.8L610.4,619.7L609.1,618.9L607.6,618.3L604.9,617.8L600.2,617.2L592.9,616.4L584.1,615.4L575.0,614.3L567.1,613.1L561.3,612.0L557.2,610.9L553.9,609.8L550.5,608.7L546.2,607.6L540.8,606.4L533.8,605.3L524.9,604.0L514.0,602.8L502.0,601.5L489.8,600.3L478.5,599.3L468.7,598.4L459.3,597.6L449.2,596.5L436.8,595.0L421.5,593.1L404.3,590.8L387.0,588.6L371.1,586.7L357.9,585.5L347.3,584.7L338.4,584.1L330.6,583.6L323.4,583.0L316.0,582.0L307.9,580.5L298.4,578.4L287.3,575.5L275.3,572.0L263.5,568.0L252.7,563.6L243.8,559.0L236.6,554.3L230.8,549.8L225.9,545.5L221.4,541.6L216.7,537.1L210.8,531.0L203.0,522.3L192.9,510.4L181.2,496.6L169.3,482.7L158.3,470.2L149.2,460.4L141.4,451.9L133.7,442.9L125.3,431.6L115.6,416.9L105.7,401.0L97.3,387.0" fill="none" stroke="#c9bda5" stroke-width="0.9" stroke-opacity="0.45"/><path d="M643.4,909.3L642.6,908.5L633.9,900.3L624.6,891.6L616.3,884.1L610.4,879.1L606.5,876.1L604.0,874.5L602.1,873.4L600.3,872.3L598.3,871.1L596.1,869.5L593.5,867.8L590.4,865.8L586.7,863.4L582.3,860.7L577.1,857.5" fill="none" stroke="#c9bda5" stroke-width="0.9" stroke-opacity="0.45"/><path d="M659.2,903.4L658.5,902.7L649.8,894.7L640.1,886.0L630.6,878.3L622.5,872.5L615.9,868.5L610.6,865.8L606.4,863.8L603.1,862.1L600.4,860.6L597.9,859.0L595.4,857.3L592.4,855.3L588.8,853.0L584.5,850.3L579.3,847.1" fill="none" stroke="#c9bda5" stroke-width="0.9" stroke-opacity="0.45"/><path d="M649.2,597.9L644.2,594.7L640.3,592.1L637.1,590.0L634.5,588.3L632.3,586.9L630.5,585.7L629.0,584.7L628.0,584.0L627.1,583.5L625.7,583.1L622.7,582.7L617.3,582.1L608.8,581.2L598.6,580.0L588.2,578.9L579.3,577.7L573.2,576.8L569.3,575.9L566.6,575.2L564.3,574.4L561.5,573.7L557.3,572.9L551.2,571.9L542.5,570.8L530.9,569.6L517.6,568.3L504.1,567.0L492.0,565.9L482.2,565.0L473.5,564.2L463.7,563.1L451.0,561.5L434.0,559.2L414.5,556.6L394.7,554.0L377.1,551.8L363.5,550.3L353.4,549.5L345.7,549.0L339.5,548.6L333.7,548.0L327.8,547.3L321.3,546.1L313.8,544.4L304.9,542.1L295.4,539.3L285.9,536.1L277.3,532.6L270.2,528.9L264.5,525.2L259.9,521.6L255.9,518.2L252.3,514.9L248.0,510.7L241.9,504.2L233.0,493.9L220.7,479.3L206.3,462.1L191.7,444.8L178.8,429.8L168.8,418.6L160.9,409.5L153.2,399.9L144.3,386.9L133.0,369.2L121.2,349.7L111.0,332.7L110.3,331.5" fill="none" stroke="#c9bda5" stroke-width="0.9" stroke-opacity="0.45"/><path d="M651.4,587.6L646.6,584.4L642.9,582.0L640.0,580.2L637.8,578.7L636.0,577.5L634.5,576.5L633.2,575.7L632.4,575.1L631.6,574.7L630.2,574.3L627.2,573.9L621.6,573.3L612.8,572.3L602.2,571.2L591.5,570.0L582.4,568.9L576.2,568.0L572.3,567.2L569.8,566.5L567.8,565.8L565.3,565.2L561.5,564.5L555.6,563.6L547.0,562.6L535.2,561.3L521.5,560.0L507.7,558.6L495.4,557.5L485.6,556.6L477.0,555.8L467.3,554.7L454.5,553.1L437.1,550.7L417.0,548.0L396.6,545.3L378.6,543.1L364.9,541.6L354.9,540.7L347.6,540.2L341.7,539.8L336.2,539.3L330.7,538.6L324.7,537.5L317.6,535.9L309.3,533.7L300.4,531.1L291.5,528.1L283.5,524.8L276.8,521.4L271.5,517.9L267.1,514.5L263.4,511.3L260.0,508.3L255.8,504.1L249.7,497.5L240.5,486.9L227.6,471.6L212.5,453.5L197.3,435.3L183.9,419.6L173.7,408.2L165.8,398.9L158.1,389.1L149.0,375.8L137.4,357.3L125.0,336.9L114.4,319.1L113.5,317.6" fill="none" stroke="#c9bda5" stroke-width="0.9" stroke-opacity="0.45"/><path d="M653.6,577.2L648.9,574.1L645.5,571.9L643.0,570.3L641.2,569.2L639.7,568.2L638.4,567.3L637.5,566.7L636.7,566.2L636.1,565.9L634.7,565.5L631.6,565.1L625.8,564.5L616.8,563.5L605.9,562.4L594.8,561.2L585.5,560.0L579.1,559.1L575.3,558.4L573.0,557.8L571.3,557.3L569.1,556.7L565.6,556.1L560.0,555.3L551.4,554.3L539.4,553.0L525.4,551.6L511.2,550.3L498.7,549.2L489.0,548.3L480.5,547.4L471.0,546.3L458.0,544.7L440.2,542.3L419.5,539.5L398.6,536.7L380.2,534.3L366.3,532.8L356.5,531.9L349.4,531.4L343.9,531.0L338.8,530.6L333.7,529.9L328.0,528.9L321.4,527.4L313.7,525.4L305.4,522.9L297.1,520.1L289.6,517.1L283.4,513.9L278.4,510.6L274.4,507.5L271.0,504.5L267.7,501.6L263.7,497.5L257.5,490.8L248.0,479.8L234.6,463.8L218.8,444.9L202.9,425.9L189.0,409.5L178.6,397.7L170.6,388.4L163.0,378.3L153.7,364.6L141.7,345.4L128.9,324.1L117.9,305.6L116.8,303.7" fill="none" stroke="#c9bda5" stroke-width="0.9" stroke-opacity="0.45"/><path d="M706.7,885.8L706.2,885.4L697.5,877.8L686.5,869.3L673.5,860.6L659.0,852.6L644.2,845.5L630.5,839.6L619.3,834.8L611.6,831.5L606.7,829.1L603.6,827.3L601.2,825.7L598.4,823.9L595.1,821.8L591.0,819.2L586.0,816.1" fill="none" stroke="#c9bda5" stroke-width="0.9" stroke-opacity="0.45"/><path d="M722.5,879.9L722.1,879.6L713.4,872.2L702.0,863.7L687.8,854.7L671.1,846.0L653.6,837.9L637.1,830.8L623.6,825.2L614.4,821.2L608.8,818.6L605.5,816.8L603.1,815.2L600.5,813.5L597.2,811.4L593.2,808.9L588.2,805.7" fill="none" stroke="#c9bda5" stroke-width="0.9" stroke-opacity="0.45"/><path d="M594.6,506.1L582.9,505.0L564.2,503.2L543.1,501.3L524.6,499.5L511.8,498.3L502.5,497.4L492.8,496.2L479.2,494.3L458.9,491.5L434.7,488.1L410.2,484.7L389.2,481.9L374.7,480.1L365.7,479.1L360.4,478.7L357.1,478.4L354.3,478.2L351.4,477.8L348.2,477.2L344.5,476.4L340.1,475.3L335.4,473.9L330.8,472.3L326.5,470.6L323.1,468.8L320.2,466.9L317.9,465.1L316.0,463.5L314.0,461.7L310.6,458.0L304.2,450.6L293.0,437.3L276.3,417.2L256.4,393.1L236.4,369.1L219.6,348.9L208.2,335.2L200.6,326.1L194.8,318.1L188.2,307.9L179.3,293.3L169.5,276.8L160.7,262.0L159.8,260.4" fill="none" stroke="#c9bda5" stroke-width="0.9" stroke-opacity="0.45"/><path d="M662.4,535.8L658.1,533.1L655.8,531.6L654.9,531.0L654.7,530.8L654.5,530.7L654.4,530.7L654.4,530.6L654.3,530.6L654.1,530.5L652.8,530.4L649.5,530.0L643.0,529.4L632.7,528.3L620.4,527.0L608.0,525.7L597.7,524.6L591.0,523.9L587.4,523.4L585.8,523.1L585.1,522.9L584.3,522.8L582.1,522.5L577.4,521.9L569.0,521.1L556.3,519.9L541.0,518.4L525.5,517.0L512.2,515.7L502.6,514.8L494.7,514.0L485.5,512.9L472.1,511.1L452.7,508.4L429.6,505.2L406.3,502.1L386.2,499.4L371.9,497.7L362.6,496.7L356.7,496.2L352.7,496.0L349.1,495.7L345.5,495.2L341.5,494.4L336.8,493.4L331.3,492.0L325.4,490.2L319.5,488.2L314.2,486.1L309.8,483.8L306.3,481.5L303.4,479.2L301.0,477.2L298.6,475.0L295.0,471.2L288.6,464.0L278.0,451.5L262.4,432.7L243.8,410.4L225.2,388.0L209.4,369.1L198.3,356.0L190.3,346.3L183.0,336.2L174.0,322.1L161.6,301.9L148.1,279.2L141.5,268.1" fill="none" stroke="#c9bda5" stroke-width="0.9" stroke-opacity="0.45"/><path d="M569.7,495.1L560.3,494.2L547.1,493.0L532.9,491.6L520.7,490.5L512.1,489.7L505.1,488.9L496.4,487.8L482.7,485.9L462.1,483.0L437.2,479.6L412.1,476.1L390.8,473.2L376.1,471.3L367.2,470.3L362.3,469.9L359.3,469.7L356.8,469.5L354.3,469.1L351.5,468.6L348.3,467.9L344.5,466.9L340.4,465.7L336.4,464.3L332.7,462.8L329.7,461.2L327.2,459.6L325.2,458.1L323.5,456.6L321.8,455.0L318.5,451.4L312.0,443.9L300.5,430.2L283.2,409.4L262.6,384.5L242.0,359.6L224.7,338.7L213.1,324.9L205.8,316.0L200.6,309.0L195.3,300.7L188.1,289.0L185.3,284.3" fill="none" stroke="#c9bda5" stroke-width="0.9" stroke-opacity="0.45"/><path d="M754.1,868.2L753.9,868.1L745.2,860.9L733.0,852.5L716.4,842.9L695.4,832.7L672.4,822.6L650.3,813.4L632.2,805.9L620.1,800.8L613.0,797.6L609.3,795.6L607.0,794.2L604.5,792.6L601.4,790.6L597.5,788.2L592.6,785.0" fill="none" stroke="#c9bda5" stroke-width="0.9" stroke-opacity="0.45"/><path d="M491.0,460.4L476.9,458.4L452.2,454.9L423.8,451.0L398.5,447.5L381.6,445.2L372.2,444.0L367.8,443.5L366.0,443.4L364.6,443.3L363.2,443.1L361.6,442.8L359.8,442.4L357.7,441.8L355.5,441.2L353.2,440.4L351.2,439.6L349.5,438.7L348.1,437.8L347.0,436.9L346.1,436.1L344.9,435.0L342.0,431.7L335.3,423.8L323.0,409.0L304.1,386.1L281.4,358.6L258.8,331.2L244.3,313.5" fill="none" stroke="#c9bda5" stroke-width="0.9" stroke-opacity="0.45"/><path d="M433.3,434.4L424.1,433.1L411.2,431.3L397.5,429.4L385.6,427.8L377.7,426.7L373.3,426.1L371.2,425.9L370.4,425.8L369.7,425.8L369.1,425.7L368.3,425.6L367.5,425.4L366.5,425.1L365.5,424.8L364.4,424.5L363.5,424.1L362.7,423.7L362.0,423.2L361.5,422.8L361.1,422.5L360.5,421.9L358.6,419.7L354.2,414.5L346.0,404.6L333.2,389.0L317.0,369.2L299.4,347.4L282.2,325.6L275.3,316.7" fill="none" stroke="#c9bda5" stroke-width="0.9" stroke-opacity="0.45"/><path d="M404.5,421.5L397.7,420.5L390.7,419.5L384.3,418.6L379.1,417.9L375.7,417.4L373.8,417.2L372.9,417.1L372.6,417.1L372.3,417.1L372.0,417.0L371.7,417.0L371.4,416.9L370.9,416.8L370.5,416.6L370.0,416.5L369.6,416.3L369.3,416.1L369.0,416.0L368.8,415.8L368.6,415.6L368.3,415.4L367.5,414.5L365.7,412.2L362.1,408.0L356.6,401.3L349.7,392.8L342.2,383.5L334.8,374.1L328.2,365.6L322.5,358.0L317.6,351.2L313.4,345.5" fill="none" stroke="#c9bda5" stroke-width="0.9" stroke-opacity="0.45"/><path d="M295.9,316.7L315.0,328.8L327.4,331.7L332.7,326.5L333.5,317.2L333.5,316.7" fill="none" stroke="#c9bda5" stroke-width="0.9" stroke-opacity="0.45"/><path d="M801.5,850.6L792.9,844.1L779.4,835.7L759.3,825.3L731.9,812.8L700.7,799.6L670.2,787.2L645.0,777.0L628.6,770.1L619.4,766.1L614.9,764.0L612.7,762.6L610.6,761.2L607.8,759.4L604.1,757.1L599.2,754.0" fill="none" stroke="#c9bda5" stroke-width="0.9" stroke-opacity="0.45"/><path d="M833.1,838.9L824.7,832.9L810.4,824.5L787.9,813.5L756.2,799.6L719.5,784.3L683.5,769.7L653.6,757.7L634.2,749.7L623.6,745.2L618.7,742.8L616.6,741.5L614.6,740.3L612.0,738.6L608.4,736.3L603.6,733.3" fill="none" stroke="#c9bda5" stroke-width="0.9" stroke-opacity="0.45"/><path d="M848.9,833.1L840.7,827.2L825.9,818.9L802.2,807.6L768.3,793.0L728.9,776.7L690.1,760.9L657.9,748.0L637.0,739.5L625.7,734.7L620.6,732.3L618.5,731.0L616.6,729.8L614.1,728.2L610.6,726.0L605.8,723.0" fill="none" stroke="#c9bda5" stroke-width="0.9" stroke-opacity="0.45"/><path d="M549.0,439.8L531.9,436.1L500.0,429.2L462.6,421.1L429.5,413.8L407.9,408.7L396.3,404.2L391.2,398.0L388.7,387.9L386.0,372.3L382.9,353.5L382.2,349.1" fill="none" stroke="#c9bda5" stroke-width="0.9" stroke-opacity="0.45"/><path d="M444.9,444.3L460.8,447.8L487.9,453.6L515.1,459.5L531.0,462.9" fill="none" stroke="#c9bda5" stroke-width="0.9" stroke-opacity="0.45"/><path d="M473.7,457.3L484.4,459.6L500.1,463.0L515.8,466.4L526.5,468.7" fill="none" stroke="#c9bda5" stroke-width="0.9" stroke-opacity="0.45"/><path d="M880.4,821.3L872.5,816.0L856.8,807.8L830.8,795.9L792.6,779.7L747.8,761.4L703.3,743.5L666.5,728.7L642.7,719.0L629.9,713.7L624.4,711.2L622.4,710.0L620.7,708.9L618.3,707.4L614.9,705.3L610.2,702.3" fill="none" stroke="#c9bda5" stroke-width="0.9" stroke-opacity="0.45"/><path d="M766.8,711.9L736.5,699.8L688.0,680.5L656.9,667.9L640.5,661.2L633.8,658.4L632.0,657.4L630.8,656.6L628.9,655.4L625.8,653.5L621.2,650.6" fill="none" stroke="#c9bda5" stroke-width="0.9" stroke-opacity="0.45"/><path d="M562.5,422.5L548.0,419.3L522.2,413.7L492.4,407.1L465.8,401.0L448.1,396.3L438.2,392.0L433.3,386.3L430.7,377.5L428.1,364.4L425.3,348.7L422.7,332.7L420.7,318.6L420.4,316.7" fill="none" stroke="#c9bda5" stroke-width="0.9" stroke-opacity="0.45"/><path d="M899.7,802.5L887.8,796.6L859.4,784.1L817.0,766.5L766.6,746.1L716.6,726.0L675.1,709.4L648.4,698.6L634.1,692.7L628.2,690.0L626.2,688.9L624.7,688.0L622.5,686.6L619.3,684.5L614.6,681.6" fill="none" stroke="#c9bda5" stroke-width="0.9" stroke-opacity="0.45"/><path d="M567.0,416.7L553.3,413.7L529.6,408.5L502.3,402.4L477.9,396.7L461.6,392.2L452.2,388.0L447.4,382.4L444.7,374.0L442.1,361.8L439.5,347.1L437.0,332.1L435.1,318.7L433.9,308.5L433.5,301.1L433.5,300.5" fill="none" stroke="#c9bda5" stroke-width="0.9" stroke-opacity="0.45"/><path d="M927.7,803.8L920.2,799.1L903.3,791.0L873.7,778.2L829.1,759.8L776.0,738.4L723.2,717.3L679.4,699.8L651.2,688.4L636.2,682.2L630.1,679.5L628.2,678.4L626.7,677.5L624.6,676.2L621.5,674.2L616.8,671.2" fill="none" stroke="#c9bda5" stroke-width="0.9" stroke-opacity="0.45"/><path d="M931.0,791.2L918.8,785.4L888.0,772.3L841.3,753.2L785.4,730.8L729.8,708.5L683.7,690.1L654.0,678.2L638.3,671.7L632.0,668.9L630.1,667.9L628.7,667.0L626.7,665.8L623.6,663.8L619.0,660.9" fill="none" stroke="#c9bda5" stroke-width="0.9" stroke-opacity="0.45"/><path d="M796.7,655.4L782.9,649.9L731.5,629.6L690.2,613.2L663.9,602.7L650.2,597.1L644.8,594.9L643.6,594.3L642.9,593.8L641.5,592.9L638.9,591.3L634.4,588.5" fill="none" stroke="#c9bda5" stroke-width="0.9" stroke-opacity="0.45"/><path d="M871.3,753.9L853.4,746.6L794.9,723.1L790.8,721.5" fill="none" stroke="#c9bda5" stroke-width="0.9" stroke-opacity="0.45"/><path d="M871.3,742.3L865.6,740.0L819.4,721.5" fill="none" stroke="#c9bda5" stroke-width="0.9" stroke-opacity="0.45"/><path d="M571.5,410.9L558.7,408.1L537.0,403.3L512.2,397.7L490.0,392.4L475.0,388.1L466.2,383.9L461.5,378.5L458.7,370.5L456.1,359.1L453.6,345.5L451.4,331.6L449.6,318.9L448.4,309.0L448.0,301.6L448.4,295.9L449.4,291.2L451.4,286.8L455.3,281.6L462.1,274.4L472.9,264.0L488.4,249.7L507.4,233.0L528.6,215.8L550.3,199.8L571.1,186.7L590.1,176.5L606.2,168.9L617.5,164.1" fill="none" stroke="#c9bda5" stroke-width="0.9" stroke-opacity="0.45"/><path d="M531.8,436.4L541.4,438.1L555.2,440.5L570.3,443.1L583.5,445.3L592.9,446.7L599.1,447.4L603.8,447.9L608.8,448.4L615.5,449.3L624.6,450.7L636.6,452.8L652.1,455.8L672.1,459.6L699.6,463.9L738.4,468.3L751.9,469.3" fill="none" stroke="#c9bda5" stroke-width="0.9" stroke-opacity="0.45"/><path d="M576.0,405.1L564.0,402.5L544.4,398.2L522.1,393.0L502.1,388.1L488.4,384.0L480.1,379.9L475.5,374.6L472.7,367.1L470.2,356.5L467.8,343.9L465.7,331.0L464.0,319.1L463.0,309.5L462.6,302.0L462.9,296.1L463.9,291.3L465.7,286.9L469.2,282.0L475.5,275.3L485.4,265.7L499.6,252.7L517.0,237.4L536.4,221.5L556.3,206.9L575.5,194.9L592.9,185.5L607.8,178.5L619.4,173.6L625.8,171.0" fill="none" stroke="#c9bda5" stroke-width="0.9" stroke-opacity="0.45"/><path d="M545.3,419.1L553.9,420.6L565.4,422.6L577.7,424.7L588.5,426.3L596.5,427.4L602.1,427.9L606.6,428.2L611.1,428.6L616.9,429.2L625.1,430.5L637.1,432.7L654.1,436.1L677.5,440.7L709.1,446.0L736.9,449.6" fill="none" stroke="#c9bda5" stroke-width="0.9" stroke-opacity="0.45"/><path d="M549.8,413.3L558.1,414.8L568.8,416.6L580.1,418.5L590.2,420.0L597.7,420.9L603.1,421.4L607.5,421.6L611.9,421.9L617.3,422.6L625.3,423.8L637.3,426.0L654.8,429.5L679.4,434.4L712.2,440.0L736.9,443.4" fill="none" stroke="#c9bda5" stroke-width="0.9" stroke-opacity="0.45"/><path d="M584.9,393.6L574.7,391.3L559.2,387.8L541.9,383.7L526.4,379.5L515.2,375.7L508.1,371.7L503.6,366.8L500.7,360.1L498.2,351.2L496.0,340.8L494.3,329.9L492.9,319.5L492.1,310.5L491.7,303.0L492.0,296.7L492.8,291.6L494.2,287.2L497.1,282.7L502.2,277.1L510.3,269.3L522.0,258.6L536.3,246.1L552.2,233.1L568.5,221.1L584.2,211.2L598.6,203.5L611.1,197.7L621.3,193.4L628.8,190.5L632.4,189.5" fill="none" stroke="#c9bda5" stroke-width="0.9" stroke-opacity="0.45"/><path d="M593.9,382.0L585.4,380.1L574.0,377.5L561.7,374.3L550.6,370.9L542.1,367.5L536.0,363.6L531.7,359.0L528.7,353.2L526.2,345.9L524.3,337.6L522.9,328.7L521.8,319.9L521.2,311.5L520.9,303.9L521.0,297.3L521.6,291.8L522.8,287.5L525.0,283.5L529.0,279.0L535.3,272.8L544.4,264.5L555.5,254.7L567.9,244.6L580.6,235.3L592.8,227.6L604.2,221.6L614.5,216.9L617.5,215.6" fill="none" stroke="#c9bda5" stroke-width="0.9" stroke-opacity="0.45"/><path d="M946.0,785.2L934.3,779.8L911.1,770.1" fill="none" stroke="#c9bda5" stroke-width="0.9" stroke-opacity="0.45"/><path d="M931.0,553.4L909.3,545.3L875.8,532.5L849.6,522.9L827.2,515.9L804.9,511.0L780.3,507.9L754.3,505.9L729.0,504.5L706.5,503.2L688.1,501.5L673.1,499.6L660.2,497.4L648.0,495.2L635.5,493.0L623.5,491.0L612.7,489.3L604.2,488.0L598.3,487.2L593.0,486.4L585.6,485.3L573.6,483.2L555.5,480.1L534.8,476.4L516.3,473.2L504.8,471.1" fill="none" stroke="#c9bda5" stroke-width="0.9" stroke-opacity="0.45"/><path d="M931.0,569.6L903.5,559.7L873.8,548.7L847.1,538.7L825.3,530.3L807.0,523.5L790.2,518.3L772.9,514.6L753.5,512.1L733.1,510.5L713.3,509.4L695.6,508.4L681.1,507.1L669.1,505.5L658.2,503.7L647.3,501.7L635.4,499.7L623.3,497.7L612.2,496.0L603.4,494.6L597.5,493.8L592.8,493.1L587.3,492.2L578.7,490.8L565.9,488.5L551.0,485.9L537.2,483.4L527.6,481.7" fill="none" stroke="#c9bda5" stroke-width="0.9" stroke-opacity="0.45"/><path d="M931.0,584.4L927.7,583.2L895.0,571.8L864.7,561.2L837.8,551.6L814.3,543.0L794.7,535.6L778.9,529.5L765.6,524.6L753.4,520.8L740.8,518.1L726.7,516.3L711.9,515.2L697.5,514.4L684.7,513.6L674.1,512.7L665.1,511.5L656.3,510.0L646.6,508.3L635.2,506.4L623.1,504.4L611.8,502.7L602.7,501.2L596.7,500.3L592.7,499.7L589.2,499.2L584.4,498.4L577.3,497.1L568.7,495.6L559.9,494.1L552.4,492.7" fill="none" stroke="#c9bda5" stroke-width="0.9" stroke-opacity="0.45"/><path d="M931.0,598.6L916.7,593.6L870.3,577.5L828.4,563.1L795.9,551.9L772.1,543.5L754.9,537.2L742.3,532.5L732.4,528.7L724.2,525.7L716.6,523.3L708.7,521.6L700.0,520.5L690.8,519.8L681.8,519.3L673.8,518.8L667.2,518.2L661.1,517.4L654.4,516.3L645.9,514.9L635.0,513.1L622.9,511.2L611.3,509.3L601.9,507.9L595.9,506.9L592.6,506.4L591.0,506.2L590.0,506.0L588.6,505.8L586.3,505.3L582.6,504.7L577.2,503.7" fill="none" stroke="#c9bda5" stroke-width="0.9" stroke-opacity="0.45"/><path d="M576.7,378.6L583.1,379.7L589.2,380.7L594.9,381.6L600.2,382.1L604.9,382.3L609.2,382.4L613.0,382.3L616.5,382.3L620.1,382.5L626.4,383.5L638.4,385.9L659.0,390.1L690.3,396.5L692.2,396.9" fill="none" stroke="#c9bda5" stroke-width="0.9" stroke-opacity="0.45"/><path d="M931.0,537.0L913.9,530.3L888.6,520.9L863.7,513.3L837.0,507.5L807.0,503.7L775.5,501.2L744.8,499.5L717.3,497.9L695.0,496.0L677.1,493.6L662.1,491.1L648.6,488.6L635.7,486.3L623.7,484.3L613.2,482.6L605.0,481.4L599.2,480.6L594.0,479.9L586.8,478.8L575.2,476.9L557.9,473.9L538.2,470.4L520.5,467.3L509.3,465.3" fill="none" stroke="#c9bda5" stroke-width="0.9" stroke-opacity="0.45"/><path d="M960.9,650.6L929.1,639.3L869.6,618.7L808.5,597.6L754.8,579.0L715.3,565.1L689.0,555.6L672.7,549.4L663.1,545.7L657.5,543.4L654.6,542.3L653.5,541.8L653.2,541.7L653.0,541.5L652.1,540.9L649.8,539.5L645.4,536.8" fill="none" stroke="#c9bda5" stroke-width="0.9" stroke-opacity="0.45"/><path d="M581.2,372.8L587.3,373.9L592.6,374.8L597.4,375.4L601.9,375.8L606.1,375.9L610.2,375.9L613.9,375.7L617.2,375.7L620.6,375.9L626.6,376.8L638.5,379.2L659.7,383.5L692.1,390.2L692.2,390.2" fill="none" stroke="#c9bda5" stroke-width="0.9" stroke-opacity="0.45"/><path d="M585.7,367.0L591.4,368.1L596.0,368.8L599.9,369.2L603.5,369.5L607.4,369.5L611.2,369.4L614.8,369.2L618.0,369.1L621.0,369.2L626.8,370.1L638.7,372.5L660.3,377.0L677.2,380.5" fill="none" stroke="#c9bda5" stroke-width="0.9" stroke-opacity="0.45"/><path d="M593.7,300.5L593.8,306.3L593.9,314.0L594.1,320.8L594.4,325.9L595.0,329.5L596.1,332.5L598.0,335.3L600.9,338.5L604.6,342.1L609.0,346.1L613.8,350.3" fill="none" stroke="#c9bda5" stroke-width="0.9" stroke-opacity="0.45"/><path d="M518.3,453.8L528.8,455.6L545.0,458.5L562.9,461.6L578.6,464.3L589.2,466.0L596.0,466.9L601.1,467.5L606.5,468.2L614.1,469.3L624.0,470.9L636.1,472.9L650.0,475.5L666.0,478.5L685.1,481.7L709.0,484.8L739.1,487.5L776.4,489.7L819.0,492.4L864.4,496.9L910.2,504.5L931.0,509.7" fill="none" stroke="#c9bda5" stroke-width="0.9" stroke-opacity="0.45"/><path d="M926.6,705.3L888.4,691.0L856.4,678.6" fill="none" stroke="#c9bda5" stroke-width="0.9" stroke-opacity="0.45"/><path d="M1035.5,699.4L1032.5,694.7L1025.5,689.4L1010.5,682.4L983.1,672.0L940.6,656.9L888.2,638.6L832.9,619.4L781.5,601.4L739.7,586.4L707.8,574.5L684.5,565.5L668.6,559.2L658.8,555.3L653.7,553.2L651.8,552.4L651.3,552.2L651.0,552.0L649.9,551.3L647.6,549.8L643.2,547.1" fill="none" stroke="#c9bda5" stroke-width="0.9" stroke-opacity="0.45"/><path d="M608.3,300.5L608.3,306.8L608.4,314.5L608.5,321.0L608.6,325.3L608.8,327.7L609.0,328.8L609.3,329.4L609.9,330.1L611.2,331.2L613.6,333.4L617.5,336.9" fill="none" stroke="#c9bda5" stroke-width="0.9" stroke-opacity="0.45"/><path d="M438.3,269.6L447.9,260.4L465.9,243.8L487.8,224.5L511.6,204.7L535.2,186.8L556.9,172.6L575.8,162.0L591.3,154.3L602.9,148.7L610.3,144.7L614.5,141.3L615.5,139.5" fill="none" stroke="#c9bda5" stroke-width="0.9" stroke-opacity="0.45"/><path d="M453.3,229.2L468.1,216.0L494.3,193.8L519.4,174.2L541.1,159.3L559.1,148.5L573.3,140.8L583.7,135.1L590.5,130.4L594.5,125.8L595.9,122.9" fill="none" stroke="#c9bda5" stroke-width="0.9" stroke-opacity="0.45"/><path d="M469.4,53.2L469.0,54.5L467.7,58.2L466.3,61.0L464.6,63.1L461.8,65.5L457.2,69.2L450.0,75.1L439.8,83.9L427.9,94.4L423.4,98.3" fill="none" stroke="#c9bda5" stroke-width="0.9" stroke-opacity="0.45"/><path d="M453.3,216.2L458.3,211.8L485.6,188.4L511.4,167.9L533.2,152.6L550.7,141.8L564.3,134.1L574.1,128.3L580.6,123.2L584.5,118.1L586.1,114.6" fill="none" stroke="#c9bda5" stroke-width="0.9" stroke-opacity="0.45"/><path d="M481.6,52.7L480.7,55.9L478.7,61.2L476.5,65.5L473.7,69.0L469.3,72.8L461.9,78.7L450.4,88.3L434.0,102.4L429.7,106.2" fill="none" stroke="#c9bda5" stroke-width="0.9" stroke-opacity="0.45"/><path d="M1005.7,707.3L993.3,702.5L963.7,692.0L925.5,678.6L881.6,663.1L856.4,654.0" fill="none" stroke="#c9bda5" stroke-width="0.9" stroke-opacity="0.45"/><path d="M696.3,397.7L731.1,404.3L736.9,405.2" fill="none" stroke="#c9bda5" stroke-width="0.9" stroke-opacity="0.45"/><path d="M517.1,56.1L514.5,64.1L511.1,72.9L506.7,80.7L501.1,87.2L492.2,94.5L477.9,105.7L455.9,123.7L438.6,138.6" fill="none" stroke="#c9bda5" stroke-width="0.9" stroke-opacity="0.45"/><path d="M453.3,164.7L479.7,142.6L501.6,125.8L517.3,114.7L528.2,107.3L535.6,101.1L540.8,94.5L544.5,87.3L546.7,81.2" fill="none" stroke="#c9bda5" stroke-width="0.9" stroke-opacity="0.45"/><path d="M526.9,64.5L524.5,71.8L521.0,80.1L516.3,87.5L509.9,94.1L498.7,102.9L479.5,118.1L453.3,139.8" fill="none" stroke="#c9bda5" stroke-width="0.9" stroke-opacity="0.45"/><path d="M788.9,478.6L807.5,479.7L856.4,481.7" fill="none" stroke="#c9bda5" stroke-width="0.9" stroke-opacity="0.45"/><path d="M470.2,522.8L470.2,575.4L417.5,575.4L417.5,522.8L470.2,522.8ZM408.5,332.9L393.6,332.9L393.6,349.1L363.7,349.1L363.7,332.9L378.6,332.9L378.6,316.7L408.5,316.7L408.5,332.9ZM184.5,268.1L202.7,268.1L225.4,272.2L244.2,275.6L244.2,284.3L259.2,284.3L259.2,300.5L244.2,300.5L244.3,316.7L214.4,316.7L214.4,284.3L184.5,284.3L184.5,268.1ZM154.7,259.5L154.7,268.1L125.1,268.1L128.2,254.7L154.7,259.5ZM244.2,187.2L242.1,187.2L232.3,176.2L229.3,172.9L229.3,171.0L227.6,171.0L214.4,156.2L214.4,154.8L213.1,154.8L199.5,139.5L199.5,138.6L198.6,138.6L192.9,132.2L184.5,119.6L184.5,106.2L175.7,106.2L169.6,97.0L169.6,90.0L164.9,90.0L154.7,74.5L154.7,64.2L199.5,65.7L199.5,73.8L229.3,73.8L229.3,66.6L231.6,66.7L266.5,57.6L423.4,57.6L423.4,106.2L438.3,106.2L438.3,138.6L453.3,138.6L453.3,154.4L470.2,154.4L470.2,207.0L470.2,259.7L438.3,259.7L438.3,300.5L423.4,300.5L423.4,316.7L408.5,316.7L408.5,300.5L333.8,300.5L333.8,316.7L274.1,316.7L274.1,285.3L289.0,291.3L289.0,300.5L304.0,300.5L304.0,284.3L294.8,284.3L289.1,265.9L289.0,265.8L289.0,259.7L286.9,259.7L286.6,258.9L286.6,258.9L286.6,258.9L284.1,251.9L282.3,246.8L274.1,229.7L273.1,227.7L267.5,219.6L260.0,208.6L259.2,207.7L259.2,203.4L255.7,203.4L245.7,191.1L244.2,189.5L244.2,187.2ZM916.1,808.1L887.7,818.7L886.2,818.7L886.2,802.5L916.1,802.5L916.1,808.1ZM946.0,797.0L931.3,802.5L931.0,802.5L931.0,786.3L946.0,786.3L946.0,797.0ZM856.4,705.3L841.5,705.3L841.5,721.5L766.8,721.5L766.8,656.7L796.7,656.7L796.7,640.5L856.4,640.5L856.4,705.3ZM722.3,219.6L737.0,228.4L737.0,235.8L749.1,235.8L749.7,236.1L749.5,243.2L742.1,251.9L737.0,251.9L737.0,258.0L728.4,268.1L722.0,268.1L722.0,275.6L719.3,278.9L722.0,280.0L722.0,284.3L733.1,284.3L751.9,291.7L751.9,300.5L774.3,300.5L796.7,309.3L796.7,316.7L815.6,316.7L841.5,326.9L841.5,332.9L856.9,332.9L871.3,338.6L871.3,349.1L898.1,349.1L902.3,350.7L950.4,349.7L960.9,373.6L960.9,397.7L971.5,397.7L975.8,407.6L975.8,430.1L985.7,430.1L990.8,441.6L990.8,462.4L999.9,462.4L1005.7,475.5L1005.7,494.8L1012.4,494.8L1020.6,522.0L1020.6,543.4L1027.1,543.4L1035.6,573.3L1035.6,592.0L1040.8,592.0L1042.6,598.1L1050.5,621.9L1050.5,624.4L1051.3,624.4L1051.3,624.4L1060.5,632.4L1065.4,633.4L1065.4,640.6L1102.6,640.6L1140.1,647.8L1140.1,659.5L1125.0,672.9L1110.2,672.9L1110.2,686.2L1106.9,689.1L1095.3,689.1L1095.3,699.5L1088.8,705.3L1080.3,705.3L1080.3,712.8L1077.1,715.7L1070.8,721.5L1065.4,721.5L1065.4,726.4L1053.1,737.7L1050.5,737.7L1050.5,740.1L1035.4,753.9L1020.6,753.9L1020.6,767.4L1017.6,770.1L990.8,770.1L990.8,780.4L975.0,786.3L946.0,786.3L946.0,770.1L901.2,770.1L901.2,753.9L871.3,753.9L871.3,705.3L946.0,705.3L946.0,721.5L1005.7,721.5L1005.7,705.3L1035.5,705.3L1035.5,689.1L1050.5,689.1L1050.5,672.9L1020.6,672.9L1020.6,656.7L960.9,656.7L960.9,640.6L946.0,640.6L946.0,624.4L916.1,624.4L916.1,608.2L931.0,608.2L931.0,494.8L901.2,494.8L901.2,478.6L871.3,478.6L871.3,494.8L856.4,494.8L856.4,478.6L751.9,478.6L751.9,462.4L736.9,462.4L736.9,397.7L692.2,397.7L692.2,381.5L677.2,381.5L677.2,365.3L662.3,365.3L662.3,349.1L632.4,349.1L632.4,332.9L617.5,332.9L617.5,300.5L587.6,300.5L587.6,284.3L602.6,284.3L602.6,268.1L617.5,268.1L617.5,207.0L575.4,207.0L575.4,154.4L628.1,154.4L633.0,154.4L633.3,154.6L633.5,154.8L647.4,165.8L653.9,171.0L662.3,177.7L675.6,188.2L677.2,189.5L677.2,189.5L680.7,192.3L680.7,203.4L695.6,203.4L707.1,210.3L707.1,219.6L722.3,219.6Z" fill="#2c5741" fill-rule="evenodd" fill-opacity="0.96" stroke="#1d3f2e" stroke-width="1.4" clip-path="url(#gleba)" stroke-linejoin="round"/><path d="M470.2,154.4L470.2,207.0L470.2,259.7L438.3,259.7L438.3,235.7L453.3,235.7L453.3,154.4L470.2,154.4ZM289.0,259.7L289.0,259.7L286.9,259.7L286.6,258.9L286.6,258.9L286.6,258.9L284.1,251.9L289.0,251.9L289.0,259.7L289.0,259.7ZM273.1,227.7L267.5,219.6L274.1,219.6L274.1,229.7L273.1,227.7ZM633.3,154.6L633.5,154.8L617.5,154.8L617.5,171.0L632.4,171.0L632.4,203.4L617.5,203.4L617.5,259.7L617.5,259.7L617.5,207.0L575.4,207.0L575.4,154.4L628.1,154.4L633.0,154.4L633.3,154.6ZM653.9,171.0L647.4,171.0L647.4,165.8L653.9,171.0ZM674.2,187.2L662.3,187.2L662.3,177.7L674.2,187.2ZM675.6,188.2L677.2,189.5L675.4,188.1L675.6,188.2ZM680.7,192.3L680.7,203.4L680.7,203.4L680.7,203.4L677.2,203.4L677.2,189.5L680.7,192.3ZM417.5,575.4L417.5,522.8L470.2,522.8L470.2,575.4L417.5,575.4Z" fill="#d4b13f" fill-rule="evenodd" fill-opacity="0.85" stroke="#8a6d1a" stroke-width="1.2" clip-path="url(#gleba)" stroke-linejoin="round"/><path d="M576.8,334.2L573.3,336.5L569.6,338.4L565.9,340.2L562.0,341.7L558.0,342.9L554.0,343.9L549.9,344.6L545.7,345.1L541.6,345.3L537.4,345.2L533.3,344.8L529.2,344.2L525.1,343.3L521.1,342.1L517.2,340.7L513.4,339.0L509.7,337.1L506.2,334.9L502.8,332.5L499.5,329.9L496.5,327.1L493.6,324.1L490.9,320.9L488.5,317.5L486.3,314.0L484.3,310.4L482.5,306.6L481.0,302.7L479.8,298.8L478.8,294.7L478.1,290.6L477.6,286.5L477.4,282.3L477.5,278.2L477.9,274.1L478.5,269.9L479.4,265.9L480.6,261.9L482.0,258.0L483.7,254.2L485.6,250.5L487.8,246.9L490.2,243.5L492.8,240.3L495.6,237.2L498.6,234.4L501.8,231.7L505.2,229.2L508.7,227.0L512.3,225.0L516.1,223.3L520.0,221.8L523.9,220.5L528.0,219.5L532.1,218.8L536.2,218.4L540.4,218.2L544.5,218.3L548.7,218.7L552.8,219.3L556.8,220.2L560.8,221.4L564.7,222.8L568.5,224.5L572.2,226.4L575.8,228.6L579.2,230.9L582.4,233.6L585.5,236.4L588.3,239.4L591.0,242.6L593.5,245.9L595.7,249.4L597.7,253.1L599.4,256.8L600.9,260.7L602.2,264.7L603.0,268.1L602.6,268.1L602.6,282.7L602.2,284.3L587.6,284.3L587.6,300.5L601.7,300.5L601.3,301.6L599.9,305.5L598.2,309.3L596.3,313.0L594.2,316.5L591.8,319.9L589.2,323.2L586.3,326.2L583.3,329.1L580.1,331.8L576.8,334.2Z" fill="#93cade" fill-rule="evenodd" fill-opacity="0.9" stroke="#5f9fb8" stroke-width="1.0" clip-path="url(#gleba)" stroke-linejoin="round"/><path d="M244.2,275.6L245.4,275.8L255.2,277.6L274.1,285.3L289.0,291.3L298.1,295.0L295.2,285.6L295.2,285.6L294.8,284.3L289.1,265.9L289.0,265.8L286.6,258.9L286.6,258.9L286.6,258.9L284.1,251.9L282.3,246.8L274.1,229.7L273.1,227.7L267.5,219.6L260.0,208.6L259.2,207.7L255.7,203.4L245.7,191.1L244.2,189.5L242.1,187.2L232.3,176.2L229.3,172.9L227.6,171.0L214.4,156.2L213.1,154.8L199.5,139.5L198.6,138.6L192.9,132.2L184.5,119.6L175.7,106.2L169.6,97.0L164.9,90.0L154.7,74.5L147.7,64.0L154.7,64.2L199.5,65.7L229.3,66.6L231.6,66.7L266.5,57.6L299.2,49.1L387.5,55.4L450.7,53.9L511.7,51.5L625.8,148.3L633.0,154.4L633.0,154.4L633.3,154.6L633.5,154.8L647.4,165.8L653.9,171.0L662.3,177.7L674.2,187.2L674.2,187.2L675.6,188.2L677.2,189.5L677.2,189.5L680.7,192.3L680.7,192.3L691.6,201.0L695.6,203.4L707.1,210.3L722.3,219.6L737.0,228.4L749.1,235.8L749.7,236.1L749.5,243.2L742.1,251.9L737.0,258.0L728.4,268.1L722.0,275.6L719.3,278.9L722.0,280.0L733.1,284.3L751.9,291.7L774.3,300.5L796.7,309.3L815.6,316.7L841.5,326.9L856.9,332.9L871.3,338.6L898.1,349.1L902.3,350.7L950.4,349.7L960.9,373.6L971.5,397.7L975.8,407.6L985.7,430.1L990.8,441.6L999.9,462.4L1005.7,475.5L1008.3,481.5L1012.4,494.8L1020.6,522.0L1026.6,541.5L1027.1,543.4L1035.6,573.3L1040.8,592.0L1042.6,598.1L1050.5,621.9L1051.3,624.4L1051.3,624.4L1060.5,632.4L1065.4,633.4L1102.6,640.6L1140.1,647.8L1150.9,649.9L1140.1,659.5L1125.0,672.9L1110.2,686.2L1106.9,689.1L1095.3,699.5L1088.8,705.3L1080.3,712.8L1077.1,715.7L1070.8,721.5L1065.4,726.4L1053.1,737.7L1050.5,740.1L1035.4,753.9L1020.6,767.4L1017.6,770.1L1017.0,770.7L990.8,780.4L975.0,786.3L946.0,797.0L931.3,802.5L916.1,808.1L887.7,818.7L621.1,917.5L602.6,879.1L595.3,872.8L584.8,867.1L539.7,843.3L503.0,826.4L499.9,824.5L476.7,813.3L413.7,793.0L351.4,774.5L285.8,758.1L236.4,745.3L199.8,735.8L173.6,711.2L151.8,681.1L120.5,638.8L94.1,619.5L49.1,592.6L125.1,268.1L128.2,254.7L154.7,259.5L202.7,268.1L225.4,272.2L244.2,275.6ZM677.2,189.5L677.2,189.5L677.2,189.5L677.2,189.5ZM453.3,154.4L453.3,138.6L453.3,154.4L453.3,154.4ZM438.3,300.5L438.3,259.7L438.3,259.7L438.3,300.5Z" fill="none" stroke="#8f8672" stroke-width="2" stroke-dasharray="10 6" fill-rule="evenodd"/></svg>