<svg xmlns="http://www.w3.org/2000/svg" viewBox="0 0 1200 967" font-family="Inter,system-ui,sans-serif"><defs><clipPath id="gleba"><path d="M246.1,265.3L247.3,265.5L247.3,265.5L257.1,267.3L258.1,267.5L259.1,267.9L278.0,275.5L281.5,276.9L279.1,269.2L276.7,262.4L274.2,255.5L272.6,250.9L264.6,234.3L264.0,233.0L258.9,225.5L251.5,215.0L251.0,214.3L247.5,210.0L237.7,197.9L236.4,196.6L234.3,194.2L224.4,183.2L221.5,179.9L219.8,178.0L206.5,163.2L205.3,161.8L191.6,146.6L190.8,145.6L185.0,139.2L184.1,138.0L175.7,125.4L166.9,112.0L160.8,102.9L156.2,95.8L145.9,80.3L138.9,69.8L138.4,68.9L138.0,68.0L137.6,67.0L137.4,66.0L137.2,64.9L137.2,63.9L137.3,62.8L137.4,61.8L137.7,60.8L138.1,59.8L138.5,58.9L139.1,58.0L139.7,57.2L140.4,56.4L141.2,55.7L142.1,55.1L143.0,54.6L144.0,54.2L144.9,53.9L146.0,53.6L147.0,53.5L148.1,53.5L155.0,53.7L199.8,55.1L229.7,56.1L230.5,56.1L263.8,47.5L296.6,38.9L297.7,38.7L298.8,38.6L300.0,38.6L387.8,44.9L450.3,43.4L511.3,41.0L512.3,41.0L513.2,41.1L514.2,41.3L515.1,41.6L516.0,41.9L516.9,42.4L517.7,42.9L518.5,43.5L632.6,140.2L639.8,146.3L639.8,146.3L639.8,146.3L640.0,146.5L640.1,146.5L653.9,157.6L660.4,162.7L668.8,169.4L680.8,178.9L682.1,180.0L683.8,181.3L687.3,184.1L697.6,192.3L701.0,194.4L712.5,201.3L727.8,210.6L742.4,219.4L754.6,226.7L755.1,227.1L756.0,227.7L756.8,228.3L757.5,229.0L758.1,229.8L758.7,230.6L759.2,231.5L759.6,232.5L759.9,233.4L760.1,234.4L760.2,235.4L760.2,236.4L760.0,243.5L759.9,244.5L759.7,245.5L759.5,246.5L759.1,247.4L758.7,248.3L758.1,249.2L757.5,250.0L750.1,258.7L745.0,264.8L736.8,274.5L736.9,274.5L755.7,281.9L778.2,290.7L800.5,299.5L819.5,306.9L845.3,317.1L860.7,323.1L875.2,328.8L902.0,339.3L904.2,340.2L950.2,339.2L951.2,339.3L952.3,339.4L953.3,339.6L954.2,339.9L955.2,340.4L956.1,340.9L956.9,341.5L957.7,342.1L958.4,342.9L959.0,343.7L959.6,344.6L960.1,345.5L970.5,369.4L981.1,393.4L985.5,403.3L995.3,425.8L1000.4,437.3L1009.6,458.2L1015.3,471.3L1018.0,477.3L1018.4,478.4L1022.4,491.8L1030.7,518.9L1036.6,538.5L1036.7,538.7L1037.2,540.5L1045.7,570.4L1051.0,589.1L1052.7,595.0L1060.4,618.3L1065.3,622.6L1067.4,623.0L1104.6,630.2L1142.1,637.5L1152.9,639.6L1153.9,639.8L1154.8,640.1L1155.7,640.6L1156.6,641.1L1157.4,641.7L1158.2,642.3L1158.9,643.1L1159.5,643.9L1160.1,644.8L1160.5,645.7L1160.9,646.6L1161.1,647.6L1161.3,648.6L1161.4,649.6L1161.4,650.6L1161.3,651.6L1161.0,652.6L1160.7,653.6L1160.3,654.5L1159.8,655.4L1159.3,656.3L1158.6,657.0L1157.9,657.8L1147.1,667.4L1132.1,680.8L1117.2,694.0L1113.9,697.0L1102.3,707.4L1095.8,713.2L1087.3,720.7L1084.2,723.5L1077.9,729.3L1072.5,734.2L1060.2,745.5L1057.6,747.8L1042.5,761.7L1027.7,775.1L1024.7,777.9L1024.1,778.5L1023.3,779.1L1022.5,779.7L1021.6,780.2L1020.6,780.6L994.4,790.3L978.6,796.1L949.6,806.9L935.0,812.3L919.8,818.0L891.3,828.5L624.8,927.4L623.8,927.7L622.8,927.9L621.8,928.0L620.7,928.0L619.7,928.0L618.7,927.8L617.7,927.5L616.7,927.1L615.8,926.6L614.9,926.0L614.1,925.4L613.4,924.7L612.7,923.9L612.1,923.0L611.6,922.1L594.1,885.7L589.3,881.5L579.8,876.3L535.1,852.8L498.6,836.0L497.5,835.4L494.9,833.8L472.7,823.1L410.6,803.0L348.7,784.7L283.2,768.3L283.2,768.3L233.7,755.5L197.1,746.0L196.1,745.7L195.2,745.3L194.2,744.8L193.4,744.2L192.6,743.5L166.4,718.8L165.7,718.1L165.1,717.4L143.3,687.3L113.0,646.3L88.3,628.3L43.7,601.6L42.9,601.1L42.1,600.4L41.4,599.7L40.7,598.9L40.1,598.1L39.6,597.2L39.2,596.2L38.9,595.2L38.7,594.2L38.6,593.2L38.6,592.2L38.7,591.2L38.9,590.2L114.8,265.7L118.0,252.3L118.3,251.3L118.7,250.3L119.2,249.4L119.8,248.5L120.4,247.6L121.2,246.9L122.0,246.2L122.9,245.6L123.9,245.1L124.8,244.7L125.9,244.5L126.9,244.3L128.0,244.2L129.1,244.2L130.1,244.4L156.5,249.1L204.6,257.8L227.3,261.9L246.1,265.3Z" fill-rule="evenodd"/></clipPath></defs><path d="M244.2,275.6L245.4,275.8L255.2,277.6L274.1,285.3L289.0,291.3L298.1,295.0L295.2,285.6L295.2,285.6L294.8,284.3L289.1,265.9L289.0,265.8L286.6,258.9L286.6,258.9L286.6,258.9L284.1,251.9L282.3,246.8L274.1,229.7L273.1,227.7L267.5,219.6L260.0,208.6L259.2,207.7L255.7,203.4L245.7,191.1L244.2,189.5L242.1,187.2L232.3,176.2L229.3,172.9L227.6,171.0L214.4,156.2L213.1,154.8L199.5,139.5L198.6,138.6L192.9,132.2L184.5,119.6L175.7,106.2L169.6,97.0L164.9,90.0L154.7,74.5L147.7,64.0L154.7,64.2L199.5,65.7L229.3,66.6L231.6,66.7L266.5,57.6L299.2,49.1L387.5,55.4L450.7,53.9L511.7,51.5L625.8,148.3L633.0,154.4L633.0,154.4L633.3,154.6L633.5,154.8L647.4,165.8L653.9,171.0L662.3,177.7L674.2,187.2L674.2,187.2L675.6,188.2L677.2,189.5L677.2,189.5L680.7,192.3L680.7,192.3L691.6,201.0L695.6,203.4L707.1,210.3L722.3,219.6L737.0,228.4L749.1,235.8L749.7,236.1L749.5,243.2L742.1,251.9L737.0,258.0L728.4,268.1L722.0,275.6L719.3,278.9L722.0,280.0L733.1,284.3L751.9,291.7L774.3,300.5L796.7,309.3L815.6,316.7L841.5,326.9L856.9,332.9L871.3,338.6L898.1,349.1L902.3,350.7L950.4,349.7L960.9,373.6L971.5,397.7L975.8,407.6L985.7,430.1L990.8,441.6L999.9,462.4L1005.7,475.5L1008.3,481.5L1012.4,494.8L1020.6,522.0L1026.6,541.5L1027.1,543.4L1035.6,573.3L1040.8,592.0L1042.6,598.1L1050.5,621.9L1051.3,624.4L1051.3,624.4L1060.5,632.4L1065.4,633.4L1102.6,640.6L1140.1,647.8L1150.9,649.9L1140.1,659.5L1125.0,672.9L1110.2,686.2L1106.9,689.1L1095.3,699.5L1088.8,705.3L1080.3,712.8L1077.1,715.7L1070.8,721.5L1065.4,726.4L1053.1,737.7L1050.5,740.1L1035.4,753.9L1020.6,767.4L1017.6,770.1L1017.0,770.7L990.8,780.4L975.0,786.3L946.0,797.0L931.3,802.5L916.1,808.1L887.7,818.7L621.1,917.5L602.6,879.1L595.3,872.8L584.8,867.1L539.7,843.3L503.0,826.4L499.9,824.5L476.7,813.3L413.7,793.0L351.4,774.5L285.8,758.1L236.4,745.3L199.8,735.8L173.6,711.2L151.8,681.1L120.5,638.8L94.1,619.5L49.1,592.6L125.1,268.1L128.2,254.7L154.7,259.5L202.7,268.1L225.4,272.2L244.2,275.6ZM677.2,189.5L677.2,189.5L677.2,189.5L677.2,189.5ZM453.3,154.4L453.3,138.6L453.3,154.4L453.3,154.4ZM438.3,300.5L438.3,259.7L438.3,259.7L438.3,300.5Z" fill="#f1ede3" fill-rule="evenodd"/><path d="M470.2,522.8L470.2,575.4L417.5,575.4L417.5,522.8L470.2,522.8ZM408.5,332.9L393.6,332.9L393.6,349.1L363.7,349.1L363.7,332.9L378.6,332.9L378.6,316.7L408.5,316.7L408.5,332.9ZM184.5,268.1L202.7,268.1L225.4,272.2L244.2,275.6L244.2,284.3L259.2,284.3L259.2,300.5L244.2,300.5L244.3,316.7L214.4,316.7L214.4,284.3L184.5,284.3L184.5,268.1ZM154.7,259.5L154.7,268.1L125.1,268.1L128.2,254.7L154.7,259.5ZM244.2,187.2L242.1,187.2L232.3,176.2L229.3,172.9L229.3,171.0L227.6,171.0L214.4,156.2L214.4,154.8L213.1,154.8L199.5,139.5L199.5,138.6L198.6,138.6L192.9,132.2L184.5,119.6L184.5,106.2L175.7,106.2L169.6,97.0L169.6,90.0L164.9,90.0L154.7,74.5L154.7,64.2L199.5,65.7L199.5,73.8L229.3,73.8L229.3,66.6L231.6,66.7L266.5,57.6L423.4,57.6L423.4,106.2L438.3,106.2L438.3,138.6L453.3,138.6L453.3,154.4L470.2,154.4L470.2,207.0L470.2,259.7L438.3,259.7L438.3,300.5L423.4,300.5L423.4,316.7L408.5,316.7L408.5,300.5L333.8,300.5L333.8,316.7L274.1,316.7L274.1,285.3L289.0,291.3L289.0,300.5L304.0,300.5L304.0,284.3L294.8,284.3L289.1,265.9L289.0,265.8L289.0,259.7L286.9,259.7L286.6,258.9L286.6,258.9L286.6,258.9L284.1,251.9L282.3,246.8L274.1,229.7L273.1,227.7L267.5,219.6L260.0,208.6L259.2,207.7L259.2,203.4L255.7,203.4L245.7,191.1L244.2,189.5L244.2,187.2ZM916.1,808.1L887.7,818.7L886.2,818.7L886.2,802.5L916.1,802.5L916.1,808.1ZM946.0,797.0L931.3,802.5L931.0,802.5L931.0,786.3L946.0,786.3L946.0,797.0ZM856.4,705.3L841.5,705.3L841.5,721.5L766.8,721.5L766.8,656.7L796.7,656.7L796.7,640.5L856.4,640.5L856.4,705.3ZM722.3,219.6L737.0,228.4L737.0,235.8L749.1,235.8L749.7,236.1L749.5,243.2L742.1,251.9L737.0,251.9L737.0,258.0L728.4,268.1L722.0,268.1L722.0,275.6L719.3,278.9L722.0,280.0L722.0,284.3L733.1,284.3L751.9,291.7L751.9,300.5L774.3,300.5L796.7,309.3L796.7,316.7L815.6,316.7L841.5,326.9L841.5,332.9L856.9,332.9L871.3,338.6L871.3,349.1L898.1,349.1L902.3,350.7L950.4,349.7L960.9,373.6L960.9,397.7L971.5,397.7L975.8,407.6L975.8,430.1L985.7,430.1L990.8,441.6L990.8,462.4L999.9,462.4L1005.7,475.5L1005.7,494.8L1012.4,494.8L1020.6,522.0L1020.6,543.4L1027.1,543.4L1035.6,573.3L1035.6,592.0L1040.8,592.0L1042.6,598.1L1050.5,621.9L1050.5,624.4L1051.3,624.4L1051.3,624.4L1060.5,632.4L1065.4,633.4L1065.4,640.6L1102.6,640.6L1140.1,647.8L1140.1,659.5L1125.0,672.9L1110.2,672.9L1110.2,686.2L1106.9,689.1L1095.3,689.1L1095.3,699.5L1088.8,705.3L1080.3,705.3L1080.3,712.8L1077.1,715.7L1070.8,721.5L1065.4,721.5L1065.4,726.4L1053.1,737.7L1050.5,737.7L1050.5,740.1L1035.4,753.9L1020.6,753.9L1020.6,767.4L1017.6,770.1L990.8,770.1L990.8,780.4L975.0,786.3L946.0,786.3L946.0,770.1L901.2,770.1L901.2,753.9L871.3,753.9L871.3,705.3L946.0,705.3L946.0,721.5L1005.7,721.5L1005.7,705.3L1035.5,705.3L1035.5,689.1L1050.5,689.1L1050.5,672.9L1020.6,672.9L1020.6,656.7L960.9,656.7L960.9,640.6L946.0,640.6L946.0,624.4L916.1,624.4L916.1,608.2L931.0,608.2L931.0,494.8L901.2,494.8L901.2,478.6L871.3,478.6L871.3,494.8L856.4,494.8L856.4,478.6L751.9,478.6L751.9,462.4L736.9,462.4L736.9,397.7L692.2,397.7L692.2,381.5L677.2,381.5L677.2,365.3L662.3,365.3L662.3,349.1L632.4,349.1L632.4,332.9L617.5,332.9L617.5,300.5L587.6,300.5L587.6,284.3L602.6,284.3L602.6,268.1L617.5,268.1L617.5,207.0L575.4,207.0L575.4,154.4L628.1,154.4L633.0,154.4L633.3,154.6L633.5,154.8L647.4,165.8L653.9,171.0L662.3,177.7L675.6,188.2L677.2,189.5L677.2,189.5L680.7,192.3L680.7,203.4L695.6,203.4L707.1,210.3L707.1,219.6L722.3,219.6Z" fill="#3a5c49" fill-rule="evenodd" fill-opacity="0.35" clip-path="url(#gleba)" stroke-linejoin="round"/><path d="M450.2,805.1L451.1,806.3L449.3,805.8L450.2,805.1ZM220.5,741.6L199.8,735.8L153.0,691.3L182.7,719.6L212.5,696.3L237.6,728.3L244.0,723.2L269.0,755.2L220.5,741.6ZM147.2,685.8L147.9,685.3L151.6,690.0L147.2,685.8ZM398.1,654.3L416.9,678.3L428.9,693.7L343.9,585.0L360.5,606.2L379.3,630.2L398.1,654.3ZM326.2,562.5L341.7,582.2L343.9,585.0L326.2,562.5ZM383.0,542.8L426.3,508.9L437.2,522.8L470.2,522.8L470.2,552.1L470.2,554.0L451.9,551.9L428.6,548.7L405.3,545.6L383.0,542.8ZM184.8,422.1L195.0,433.8L179.4,416.0L184.8,422.1ZM392.0,349.1L388.9,349.1L363.7,349.1L392.0,349.1ZM408.7,337.0L409.0,336.1L409.3,335.2L412.7,316.7L423.4,316.7L423.4,316.7L415.7,316.7L415.0,318.1L413.8,322.9L413.8,336.7L413.6,338.7L413.1,341.3L412.3,344.3L411.1,347.9L405.7,341.0L406.0,340.8L406.7,340.2L407.3,339.5L407.8,338.7L408.3,337.9L408.7,337.0ZM377.4,304.8L396.0,301.5L393.1,316.7L381.8,316.7L378.6,316.7L378.6,319.2L372.4,324.1L362.4,311.3L368.6,319.2L335.4,345.1L313.2,316.7L333.8,316.7L333.8,312.7L368.6,306.4L377.4,304.8ZM443.5,313.8L448.7,320.5L433.1,332.7L433.1,325.3L433.3,324.8L433.7,323.9L434.7,322.5L443.5,313.8ZM214.4,294.9L214.4,315.2L185.8,337.6L171.9,320.0L208.4,291.4L203.5,285.2L202.8,284.3L191.8,284.3L105.5,351.9L103.0,362.5L103.7,363.3L102.6,364.2L125.1,268.1L184.5,268.1L184.5,284.3L204.6,284.3L209.8,284.3L214.4,294.9ZM393.1,316.7L396.1,300.5L408.5,300.5L408.5,316.7L393.1,316.7ZM433.1,300.5L433.1,300.5L429.5,300.5L423.4,306.6L423.4,300.5L433.1,300.5ZM285.8,281.7L294.3,282.9L294.8,284.3L303.9,284.3L304.0,284.3L304.0,284.4L304.0,300.5L300.5,300.5L289.0,300.5L289.0,291.3L280.4,287.8L286.7,282.9L285.8,281.7ZM435.9,101.0L435.9,101.1L435.5,100.0L436.2,100.8L435.9,101.0ZM199.5,65.7L229.3,66.6L229.3,73.8L199.5,65.7ZM621.1,917.5L610.8,899.7L640.0,876.9L660.4,902.9L621.1,917.5ZM674.4,895.2L665.6,884.0L701.3,856.1L720.5,880.7L668.2,900.1L674.4,895.2ZM584.9,867.6L595.3,872.8L592.9,871.7L584.9,867.6ZM528.5,815.9L558.6,854.4L510.3,830.2L528.5,815.9ZM477.3,813.6L510.3,830.2L510.3,830.2L477.3,813.6ZM486.2,766.9L473.3,750.3L454.5,726.3L435.7,702.3L428.9,693.7L486.2,766.9ZM625.1,593.1L626.1,592.0L627.1,590.8L627.9,589.5L628.6,588.1L629.2,586.7L629.2,586.5L633.6,592.2L595.8,621.8L567.1,585.1L589.4,588.7L600.7,590.0L600.8,590.2L601.7,591.5L602.7,592.6L603.9,593.7L605.1,594.6L606.4,595.5L607.8,596.2L609.2,596.7L610.7,597.1L612.2,597.4L613.8,597.5L615.3,597.5L616.9,597.3L618.4,596.9L619.9,596.4L621.3,595.8L622.6,595.1L623.9,594.2L625.1,593.1ZM499.1,576.2L520.0,578.2L543.0,580.6L549.5,581.9L521.0,604.2L499.1,576.2ZM417.5,566.7L426.1,567.9L449.5,571.0L473.1,573.8L488.3,575.2L484.8,574.9L445.9,605.4L422.4,575.4L470.2,575.4L417.5,575.4L417.5,569.2L415.4,566.4L416.9,566.6L417.5,566.7ZM594.1,541.7L613.1,566.0L613.0,566.0L611.4,566.2L609.9,566.5L608.4,567.0L607.0,567.6L605.7,568.4L604.4,569.3L603.2,570.3L602.8,570.8L592.0,569.6L569.2,565.9L564.3,565.0L594.1,541.7ZM522.0,559.0L498.4,556.8L493.6,556.3L522.1,534.0L543.4,561.2L522.0,559.0ZM736.9,397.7L736.9,432.8L709.5,397.7L736.9,397.7L736.9,397.7L736.9,397.7ZM692.2,395.3L692.2,381.5L692.2,397.7L692.2,395.3ZM599.6,341.7L617.5,327.6L617.5,332.9L626.5,332.9L632.4,336.4L632.4,349.1L643.8,349.1L620.0,367.7L599.6,341.7ZM614.5,319.9L615.2,319.4L617.1,323.2L614.5,319.9ZM464.9,164.6L465.9,166.0L466.4,166.9L466.5,167.4L466.5,251.9L466.4,252.3L465.9,253.2L464.9,254.6L459.8,259.7L441.2,259.7L443.8,235.7L453.3,235.7L453.3,138.6L453.3,138.6L453.3,153.0L464.9,164.6ZM497.2,197.3L493.5,199.3L491.7,200.4L488.2,202.6L486.5,203.8L485.8,204.3L485.8,165.0L484.6,160.2L482.4,155.8L479.5,152.0L466.1,138.6L464.1,136.3L462.3,134.0L460.7,131.5L459.2,128.7L457.8,126.4L457.0,124.8L456.5,124.1L448.1,128.8L451.6,110.2L451.7,109.3L451.8,108.3L451.7,107.4L451.6,106.4L451.3,105.5L451.0,104.6L450.6,103.8L450.1,103.0L449.7,102.5L505.4,58.9L510.1,65.0L517.6,59.1L511.7,51.6L633.0,154.4L633.5,154.8L617.5,154.8L617.5,171.0L629.6,171.0L621.7,203.4L617.5,203.4L617.5,220.9L617.5,207.0L575.4,207.0L575.4,193.1L571.7,191.7L569.7,191.1L565.7,189.9L563.7,189.4L559.6,188.5L557.6,188.1L553.5,187.4L551.4,187.2L547.3,186.8L545.2,186.7L541.1,186.6L539.0,186.6L534.9,186.8L532.8,187.0L528.7,187.4L526.6,187.7L522.5,188.4L520.5,188.9L516.5,189.8L514.5,190.4L510.5,191.6L508.6,192.3L504.7,193.8L502.8,194.6L499.0,196.4L497.2,197.3ZM819.2,815.1L836.8,837.5L780.6,858.4L786.8,853.5L780.5,845.5L819.2,815.1ZM946.0,797.0L946.0,786.3L974.9,786.3L974.9,786.3L946.0,797.0ZM929.1,776.6L924.0,770.1L928.5,770.1L934.7,772.3L929.1,776.6ZM904.2,785.8L905.2,785.7L906.1,785.8L907.0,785.9L908.0,786.1L908.8,786.5L909.7,786.9L910.5,787.4L911.3,787.9L912.0,788.6L912.6,789.3L912.7,789.4L934.7,772.3L941.7,774.7L943.5,775.3L946.0,776.2L946.0,780.1L946.0,783.5L946.0,786.3L942.4,786.3L942.4,786.3L931.0,786.3L931.0,795.2L931.0,802.5L931.3,802.5L916.1,808.1L916.1,806.8L916.1,802.5L911.7,802.5L886.2,802.5L886.2,810.3L885.7,809.9L885.0,809.3L884.9,809.2L880.0,813.0L818.2,734.0L817.4,734.5L816.6,735.0L815.7,735.4L814.8,735.7L813.9,735.9L812.9,736.0L812.0,736.0L811.1,736.0L810.1,735.8L809.2,735.5L808.3,735.2L807.5,734.8L806.7,734.3L805.9,733.7L805.2,733.0L804.6,732.3L796.2,721.5L790.7,721.5L763.0,743.3L742.0,716.4L766.8,697.0L766.8,721.5L796.2,721.5L820.5,721.5L828.5,721.5L885.9,794.9L886.5,794.4L887.3,794.0L900.6,786.9L901.5,786.5L902.4,786.1L903.3,785.9L904.2,785.8ZM948.2,714.8L946.0,714.6L946.0,712.0L948.2,714.8ZM1018.0,705.3L1005.7,705.3L1005.7,721.5L1005.7,721.5L959.2,716.1L962.4,713.6L965.5,711.2L965.5,711.2L965.5,711.2L964.4,709.9L1001.6,682.8L1018.0,705.3ZM940.8,705.3L890.7,705.3L921.7,681.0L940.8,705.3ZM1035.5,699.9L1028.1,705.3L1018.0,705.3L982.6,656.7L994.9,656.7L1020.6,671.7L1020.6,672.9L1022.7,672.9L1050.5,689.1L1050.4,689.1L1035.5,689.1L1035.5,699.9ZM982.6,656.7L960.9,656.7L980.2,656.7L982.6,656.7ZM823.3,640.5L856.4,640.5L822.6,640.5L823.3,640.5ZM770.0,656.7L769.1,655.7L773.9,651.9L768.0,644.3L803.6,616.4L822.6,640.5L796.7,640.5L796.7,656.7L770.0,656.7ZM922.9,656.9L906.1,635.5L902.1,630.3L916.1,620.1L916.1,608.2L916.1,624.4L939.4,624.4L946.0,628.2L946.0,640.0L922.9,656.9ZM930.9,494.8L931.0,494.8L931.0,515.7L931.0,566.4L905.8,534.1L901.8,537.1L868.7,494.8L871.3,494.8L871.3,488.8L901.2,491.8L901.2,494.8L930.9,494.8ZM856.4,494.8L856.4,489.7L855.1,488.1L854.4,487.1L856.1,487.3L856.4,487.3L856.4,494.8ZM736.9,462.4L736.9,432.8L736.9,444.4L736.9,462.4Z" fill="#a9bfa0" fill-rule="evenodd" fill-opacity="0.5" clip-path="url(#gleba)" stroke-linejoin="round"/><path d="M576.8,334.2L573.3,336.5L569.6,338.4L565.9,340.2L562.0,341.7L558.0,342.9L554.0,343.9L549.9,344.6L545.7,345.1L541.6,345.3L537.4,345.2L533.3,344.8L529.2,344.2L525.1,343.3L521.1,342.1L517.2,340.7L513.4,339.0L509.7,337.1L506.2,334.9L502.8,332.5L499.5,329.9L496.5,327.1L493.6,324.1L490.9,320.9L488.5,317.5L486.3,314.0L484.3,310.4L482.5,306.6L481.0,302.7L479.8,298.8L478.8,294.7L478.1,290.6L477.6,286.5L477.4,282.3L477.5,278.2L477.9,274.1L478.5,269.9L479.4,265.9L480.6,261.9L482.0,258.0L483.7,254.2L485.6,250.5L487.8,246.9L490.2,243.5L492.8,240.3L495.6,237.2L498.6,234.4L501.8,231.7L505.2,229.2L508.7,227.0L512.3,225.0L516.1,223.3L520.0,221.8L523.9,220.5L528.0,219.5L532.1,218.8L536.2,218.4L540.4,218.2L544.5,218.3L548.7,218.7L552.8,219.3L556.8,220.2L560.8,221.4L564.7,222.8L568.5,224.5L572.2,226.4L575.8,228.6L579.2,230.9L582.4,233.6L585.5,236.4L588.3,239.4L591.0,242.6L593.5,245.9L595.7,249.4L597.7,253.1L599.4,256.8L600.9,260.7L602.2,264.7L603.0,268.1L602.6,268.1L602.6,282.7L602.2,284.3L587.6,284.3L587.6,300.5L601.7,300.5L601.3,301.6L599.9,305.5L598.2,309.3L596.3,313.0L594.2,316.5L591.8,319.9L589.2,323.2L586.3,326.2L583.3,329.1L580.1,331.8L576.8,334.2Z" fill="#93cade" fill-rule="evenodd" fill-opacity="0.9" stroke="#5f9fb8" stroke-width="0.8" clip-path="url(#gleba)" stroke-linejoin="round"/><path d="M620.0,367.7L643.8,349.1L654.1,349.1L662.3,353.9L662.3,365.3L676.8,365.3L640.4,393.8L628.5,378.6L620.0,367.7Z" fill="#f3e7c3" fill-rule="evenodd" fill-opacity="1.0" stroke="#9c7b52" stroke-width="0.6" clip-path="url(#gleba)" stroke-linejoin="round"/><path d="M676.8,365.3L677.2,365.3L677.2,381.5L692.2,381.5L692.2,395.3L660.8,419.9L645.8,400.7L640.4,393.8L676.8,365.3Z" fill="#cd7f4a" fill-rule="evenodd" fill-opacity="1.0" stroke="#9c7b52" stroke-width="0.6" clip-path="url(#gleba)" stroke-linejoin="round"/><path d="M722.2,413.9L681.2,446.0L660.8,419.9L692.2,395.3L692.2,397.7L709.5,397.7L722.2,413.9Z" fill="#cd7f4a" fill-rule="evenodd" fill-opacity="1.0" stroke="#9c7b52" stroke-width="0.6" clip-path="url(#gleba)" stroke-linejoin="round"/><path d="M736.9,432.8L736.9,437.5L736.9,444.4L736.9,444.4L701.6,472.0L681.2,446.0L722.2,413.9L736.9,432.8Z" fill="#cd7f4a" fill-rule="evenodd" fill-opacity="1.0" stroke="#9c7b52" stroke-width="0.6" clip-path="url(#gleba)" stroke-linejoin="round"/><path d="M736.9,462.4L751.9,462.4L751.9,474.8L722.1,498.1L701.6,472.0L736.9,444.4L736.9,462.4Z" fill="#cd7f4a" fill-rule="evenodd" fill-opacity="1.0" stroke="#9c7b52" stroke-width="0.6" clip-path="url(#gleba)" stroke-linejoin="round"/><path d="M773.1,479.0L783.4,492.1L742.5,524.2L722.1,498.1L751.9,474.8L751.9,478.6L769.8,478.6L773.1,479.0Z" fill="#dfab6b" fill-rule="evenodd" fill-opacity="1.0" stroke="#9c7b52" stroke-width="0.6" clip-path="url(#gleba)" stroke-linejoin="round"/><path d="M783.4,492.1L803.8,518.2L775.7,540.2L762.9,550.3L742.5,524.2L783.4,492.1Z" fill="#dfab6b" fill-rule="evenodd" fill-opacity="1.0" stroke="#9c7b52" stroke-width="0.6" clip-path="url(#gleba)" stroke-linejoin="round"/><path d="M773.1,479.0L844.8,486.2L803.8,518.2L773.1,479.0Z" fill="#dfab6b" fill-rule="evenodd" fill-opacity="1.0" stroke="#9c7b52" stroke-width="0.6" clip-path="url(#gleba)" stroke-linejoin="round"/><path d="M511.5,410.6L512.5,409.8L519.4,404.4L549.3,381.0L567.5,404.2L529.6,433.8L511.5,410.6Z" fill="#dfab6b" fill-rule="evenodd" fill-opacity="1.0" stroke="#9c7b52" stroke-width="0.6" clip-path="url(#gleba)" stroke-linejoin="round"/><path d="M529.6,433.8L567.5,404.2L585.6,427.4L547.8,457.0L536.5,442.5L529.6,433.8Z" fill="#eccf96" fill-rule="evenodd" fill-opacity="1.0" stroke="#9c7b52" stroke-width="0.6" clip-path="url(#gleba)" stroke-linejoin="round"/><path d="M585.6,427.4L603.8,450.5L565.9,480.1L547.8,457.0L585.6,427.4Z" fill="#dfab6b" fill-rule="evenodd" fill-opacity="1.0" stroke="#9c7b52" stroke-width="0.6" clip-path="url(#gleba)" stroke-linejoin="round"/><path d="M565.9,480.1L603.8,450.5L621.9,473.7L584.1,503.3L565.9,480.1Z" fill="#dfab6b" fill-rule="evenodd" fill-opacity="1.0" stroke="#9c7b52" stroke-width="0.6" clip-path="url(#gleba)" stroke-linejoin="round"/><path d="M621.9,473.7L640.1,496.9L602.2,526.5L584.1,503.3L621.9,473.7Z" fill="#dfab6b" fill-rule="evenodd" fill-opacity="1.0" stroke="#9c7b52" stroke-width="0.6" clip-path="url(#gleba)" stroke-linejoin="round"/><path d="M640.1,496.9L658.2,520.1L620.4,549.7L602.2,526.5L640.1,496.9Z" fill="#dfab6b" fill-rule="evenodd" fill-opacity="1.0" stroke="#9c7b52" stroke-width="0.6" clip-path="url(#gleba)" stroke-linejoin="round"/><path d="M658.2,520.1L676.3,543.2L638.5,572.9L620.4,549.7L658.2,520.1Z" fill="#b25b38" fill-rule="evenodd" fill-opacity="1.0" stroke="#9c7b52" stroke-width="0.6" clip-path="url(#gleba)" stroke-linejoin="round"/><path d="M676.3,543.2L694.5,566.4L656.7,596.0L638.5,572.9L676.3,543.2Z" fill="#cd7f4a" fill-rule="evenodd" fill-opacity="1.0" stroke="#9c7b52" stroke-width="0.6" clip-path="url(#gleba)" stroke-linejoin="round"/><path d="M656.7,596.0L694.5,566.4L712.6,589.6L674.8,619.2L656.7,596.0Z" fill="#cd7f4a" fill-rule="evenodd" fill-opacity="1.0" stroke="#9c7b52" stroke-width="0.6" clip-path="url(#gleba)" stroke-linejoin="round"/><path d="M549.3,381.0L587.1,351.4L605.3,374.6L567.5,404.2L549.3,381.0Z" fill="#dfab6b" fill-rule="evenodd" fill-opacity="1.0" stroke="#9c7b52" stroke-width="0.6" clip-path="url(#gleba)" stroke-linejoin="round"/><path d="M567.5,404.2L605.3,374.6L623.4,397.7L585.6,427.4L567.5,404.2Z" fill="#dfab6b" fill-rule="evenodd" fill-opacity="1.0" stroke="#9c7b52" stroke-width="0.6" clip-path="url(#gleba)" stroke-linejoin="round"/><path d="M585.6,427.4L623.4,397.7L641.6,420.9L603.8,450.5L585.6,427.4Z" fill="#dfab6b" fill-rule="evenodd" fill-opacity="1.0" stroke="#9c7b52" stroke-width="0.6" clip-path="url(#gleba)" stroke-linejoin="round"/><path d="M603.8,450.5L641.6,420.9L644.0,423.9L659.7,444.1L621.9,473.7L603.8,450.5Z" fill="#dfab6b" fill-rule="evenodd" fill-opacity="1.0" stroke="#9c7b52" stroke-width="0.6" clip-path="url(#gleba)" stroke-linejoin="round"/><path d="M640.1,496.9L621.9,473.7L659.7,444.1L677.9,467.3L640.1,496.9Z" fill="#dfab6b" fill-rule="evenodd" fill-opacity="1.0" stroke="#9c7b52" stroke-width="0.6" clip-path="url(#gleba)" stroke-linejoin="round"/><path d="M658.2,520.1L640.1,496.9L677.9,467.3L696.0,490.5L658.2,520.1Z" fill="#dfab6b" fill-rule="evenodd" fill-opacity="1.0" stroke="#9c7b52" stroke-width="0.6" clip-path="url(#gleba)" stroke-linejoin="round"/><path d="M658.2,520.1L696.0,490.5L710.4,508.9L714.2,513.6L676.3,543.2L658.2,520.1Z" fill="#eccf96" fill-rule="evenodd" fill-opacity="1.0" stroke="#9c7b52" stroke-width="0.6" clip-path="url(#gleba)" stroke-linejoin="round"/><path d="M676.3,543.2L714.2,513.6L718.9,519.7L732.3,536.8L694.5,566.4L676.3,543.2Z" fill="#eccf96" fill-rule="evenodd" fill-opacity="1.0" stroke="#9c7b52" stroke-width="0.6" clip-path="url(#gleba)" stroke-linejoin="round"/><path d="M694.5,566.4L732.3,536.8L750.5,560.0L739.0,569.0L712.6,589.6L694.5,566.4Z" fill="#eccf96" fill-rule="evenodd" fill-opacity="1.0" stroke="#9c7b52" stroke-width="0.6" clip-path="url(#gleba)" stroke-linejoin="round"/><path d="M549.5,581.9L565.9,584.9L567.1,585.1L580.7,602.6L542.9,632.2L521.0,604.2L549.5,581.9Z" fill="#f3e7c3" fill-rule="evenodd" fill-opacity="1.0" stroke="#9c7b52" stroke-width="0.6" clip-path="url(#gleba)" stroke-linejoin="round"/><path d="M580.7,602.6L602.6,630.6L564.8,660.2L542.9,632.2L580.7,602.6Z" fill="#b25b38" fill-rule="evenodd" fill-opacity="1.0" stroke="#9c7b52" stroke-width="0.6" clip-path="url(#gleba)" stroke-linejoin="round"/><path d="M564.8,660.2L602.6,630.6L624.6,658.6L586.7,688.2L564.8,660.2Z" fill="#b25b38" fill-rule="evenodd" fill-opacity="1.0" stroke="#9c7b52" stroke-width="0.6" clip-path="url(#gleba)" stroke-linejoin="round"/><path d="M595.8,621.8L633.6,592.2L638.6,598.6L648.0,610.6L610.2,640.2L595.8,621.8Z" fill="#b25b38" fill-rule="evenodd" fill-opacity="1.0" stroke="#9c7b52" stroke-width="0.6" clip-path="url(#gleba)" stroke-linejoin="round"/><path d="M610.2,640.2L648.0,610.6L662.4,628.9L624.6,658.6L610.2,640.2Z" fill="#b25b38" fill-rule="evenodd" fill-opacity="1.0" stroke="#9c7b52" stroke-width="0.6" clip-path="url(#gleba)" stroke-linejoin="round"/><path d="M356.4,559.4L379.6,561.8L402.8,564.7L415.4,566.4L417.5,569.2L417.5,575.4L422.4,575.4L422.9,576.1L382.0,608.1L343.1,558.4L356.4,559.4Z" fill="#dfab6b" fill-rule="evenodd" fill-opacity="1.0" stroke="#9c7b52" stroke-width="0.6" clip-path="url(#gleba)" stroke-linejoin="round"/><path d="M422.9,576.1L442.4,600.9L401.4,632.9L382.0,608.1L422.9,576.1Z" fill="#dfab6b" fill-rule="evenodd" fill-opacity="1.0" stroke="#9c7b52" stroke-width="0.6" clip-path="url(#gleba)" stroke-linejoin="round"/><path d="M442.4,600.9L461.8,625.7L420.9,657.8L401.4,632.9L442.4,600.9Z" fill="#dfab6b" fill-rule="evenodd" fill-opacity="1.0" stroke="#9c7b52" stroke-width="0.6" clip-path="url(#gleba)" stroke-linejoin="round"/><path d="M420.9,657.8L461.8,625.7L481.2,650.6L440.3,682.6L420.9,657.8Z" fill="#dfab6b" fill-rule="evenodd" fill-opacity="1.0" stroke="#9c7b52" stroke-width="0.6" clip-path="url(#gleba)" stroke-linejoin="round"/><path d="M481.2,650.6L500.7,675.4L459.8,707.4L440.3,682.6L481.2,650.6Z" fill="#eccf96" fill-rule="evenodd" fill-opacity="1.0" stroke="#9c7b52" stroke-width="0.6" clip-path="url(#gleba)" stroke-linejoin="round"/><path d="M500.7,675.4L520.1,700.2L479.2,732.3L459.8,707.4L500.7,675.4Z" fill="#eccf96" fill-rule="evenodd" fill-opacity="1.0" stroke="#9c7b52" stroke-width="0.6" clip-path="url(#gleba)" stroke-linejoin="round"/><path d="M520.1,700.2L539.6,725.1L498.7,757.1L479.2,732.3L520.1,700.2Z" fill="#f3e7c3" fill-rule="evenodd" fill-opacity="1.0" stroke="#9c7b52" stroke-width="0.6" clip-path="url(#gleba)" stroke-linejoin="round"/><path d="M445.9,605.4L484.8,574.9L488.3,575.2L482.1,580.1L504.0,608.1L469.3,635.3L445.9,605.4Z" fill="#f3e7c3" fill-rule="evenodd" fill-opacity="1.0" stroke="#9c7b52" stroke-width="0.6" clip-path="url(#gleba)" stroke-linejoin="round"/><path d="M492.7,665.2L469.3,635.3L504.0,608.1L527.4,638.0L492.7,665.2Z" fill="#dfab6b" fill-rule="evenodd" fill-opacity="1.0" stroke="#9c7b52" stroke-width="0.6" clip-path="url(#gleba)" stroke-linejoin="round"/><path d="M492.7,665.2L527.4,638.0L544.5,659.8L550.9,668.0L516.2,695.2L492.7,665.2Z" fill="#eccf96" fill-rule="evenodd" fill-opacity="1.0" stroke="#9c7b52" stroke-width="0.6" clip-path="url(#gleba)" stroke-linejoin="round"/><path d="M516.2,695.2L550.9,668.0L574.3,697.9L539.6,725.1L516.2,695.2Z" fill="#eccf96" fill-rule="evenodd" fill-opacity="1.0" stroke="#9c7b52" stroke-width="0.6" clip-path="url(#gleba)" stroke-linejoin="round"/><path d="M486.2,766.9L471.6,778.3L445.3,798.9L450.2,805.1L449.3,805.8L449.1,805.7L431.2,781.3L473.3,750.3L486.2,766.9Z" fill="#f3e7c3" fill-rule="evenodd" fill-opacity="1.0" stroke="#9c7b52" stroke-width="0.6" clip-path="url(#gleba)" stroke-linejoin="round"/><path d="M454.5,726.3L473.3,750.3L431.2,781.3L413.1,756.7L454.5,726.3Z" fill="#eccf96" fill-rule="evenodd" fill-opacity="1.0" stroke="#9c7b52" stroke-width="0.6" clip-path="url(#gleba)" stroke-linejoin="round"/><path d="M435.7,702.3L454.5,726.3L413.1,756.7L395.1,732.1L435.7,702.3Z" fill="#eccf96" fill-rule="evenodd" fill-opacity="1.0" stroke="#9c7b52" stroke-width="0.6" clip-path="url(#gleba)" stroke-linejoin="round"/><path d="M416.9,678.3L435.7,702.3L395.1,732.1L377.0,707.6L416.9,678.3Z" fill="#f3e7c3" fill-rule="evenodd" fill-opacity="1.0" stroke="#9c7b52" stroke-width="0.6" clip-path="url(#gleba)" stroke-linejoin="round"/><path d="M398.1,654.3L416.9,678.3L377.0,707.6L358.9,683.0L398.1,654.3Z" fill="#f3e7c3" fill-rule="evenodd" fill-opacity="1.0" stroke="#9c7b52" stroke-width="0.6" clip-path="url(#gleba)" stroke-linejoin="round"/><path d="M379.3,630.2L398.1,654.3L358.9,683.0L340.9,658.4L379.3,630.2Z" fill="#eccf96" fill-rule="evenodd" fill-opacity="1.0" stroke="#9c7b52" stroke-width="0.6" clip-path="url(#gleba)" stroke-linejoin="round"/><path d="M360.5,606.2L379.3,630.2L340.9,658.4L322.8,633.9L360.5,606.2Z" fill="#eccf96" fill-rule="evenodd" fill-opacity="1.0" stroke="#9c7b52" stroke-width="0.6" clip-path="url(#gleba)" stroke-linejoin="round"/><path d="M341.7,582.2L360.5,606.2L322.8,633.9L304.8,609.3L341.7,582.2Z" fill="#eccf96" fill-rule="evenodd" fill-opacity="1.0" stroke="#9c7b52" stroke-width="0.6" clip-path="url(#gleba)" stroke-linejoin="round"/><path d="M332.4,557.6L327.7,561.3L326.2,562.5L326.2,562.5L326.2,562.5L341.7,582.2L304.8,609.3L287.6,585.9L325.4,556.3L332.4,557.6Z" fill="#eccf96" fill-rule="evenodd" fill-opacity="1.0" stroke="#9c7b52" stroke-width="0.6" clip-path="url(#gleba)" stroke-linejoin="round"/><path d="M407.5,794.0L366.5,782.5L372.7,777.7L372.7,777.7L372.7,777.7L372.5,777.4L408.7,750.8L428.9,778.2L449.1,805.7L407.5,794.0Z" fill="#f3e7c3" fill-rule="evenodd" fill-opacity="1.0" stroke="#9c7b52" stroke-width="0.6" clip-path="url(#gleba)" stroke-linejoin="round"/><path d="M408.7,750.8L372.5,777.4L351.4,750.6L388.6,723.3L408.7,750.8Z" fill="#eccf96" fill-rule="evenodd" fill-opacity="1.0" stroke="#9c7b52" stroke-width="0.6" clip-path="url(#gleba)" stroke-linejoin="round"/><path d="M388.6,723.3L351.4,750.6L330.4,723.7L368.4,695.8L388.6,723.3Z" fill="#f3e7c3" fill-rule="evenodd" fill-opacity="1.0" stroke="#9c7b52" stroke-width="0.6" clip-path="url(#gleba)" stroke-linejoin="round"/><path d="M368.4,695.8L330.4,723.7L309.4,696.8L348.2,668.3L368.4,695.8Z" fill="#f3e7c3" fill-rule="evenodd" fill-opacity="1.0" stroke="#9c7b52" stroke-width="0.6" clip-path="url(#gleba)" stroke-linejoin="round"/><path d="M348.2,668.3L309.4,696.8L288.4,670.0L328.0,640.9L348.2,668.3Z" fill="#f3e7c3" fill-rule="evenodd" fill-opacity="1.0" stroke="#9c7b52" stroke-width="0.6" clip-path="url(#gleba)" stroke-linejoin="round"/><path d="M328.0,640.9L288.4,670.0L267.3,643.1L307.8,613.4L328.0,640.9Z" fill="#eccf96" fill-rule="evenodd" fill-opacity="1.0" stroke="#9c7b52" stroke-width="0.6" clip-path="url(#gleba)" stroke-linejoin="round"/><path d="M257.1,609.7L264.0,604.4L287.6,585.9L307.8,613.4L267.3,643.1L247.3,617.5L249.6,615.7L257.1,609.7Z" fill="#eccf96" fill-rule="evenodd" fill-opacity="1.0" stroke="#9c7b52" stroke-width="0.6" clip-path="url(#gleba)" stroke-linejoin="round"/><path d="M153.0,691.3L193.9,659.3L218.9,691.3L182.7,719.6L153.0,691.3Z" fill="#f3e7c3" fill-rule="evenodd" fill-opacity="1.0" stroke="#9c7b52" stroke-width="0.6" clip-path="url(#gleba)" stroke-linejoin="round"/><path d="M193.9,659.3L234.8,627.2L254.6,652.5L213.7,684.6L193.9,659.3Z" fill="#cd7f4a" fill-rule="evenodd" fill-opacity="1.0" stroke="#9c7b52" stroke-width="0.6" clip-path="url(#gleba)" stroke-linejoin="round"/><path d="M213.7,684.6L254.6,652.5L268.2,669.9L274.4,677.8L233.5,709.8L244.0,723.2L237.6,728.3L212.5,696.3L218.9,691.3L213.7,684.6Z" fill="#dfab6b" fill-rule="evenodd" fill-opacity="1.0" stroke="#9c7b52" stroke-width="0.6" clip-path="url(#gleba)" stroke-linejoin="round"/><path d="M233.5,709.8L274.4,677.8L276.3,680.2L294.2,703.1L253.3,735.1L233.5,709.8Z" fill="#dfab6b" fill-rule="evenodd" fill-opacity="1.0" stroke="#9c7b52" stroke-width="0.6" clip-path="url(#gleba)" stroke-linejoin="round"/><path d="M269.0,755.2L253.3,735.1L294.2,703.1L314.0,728.4L276.9,757.4L269.0,755.2Z" fill="#dfab6b" fill-rule="evenodd" fill-opacity="1.0" stroke="#9c7b52" stroke-width="0.6" clip-path="url(#gleba)" stroke-linejoin="round"/><path d="M314.0,728.4L333.8,753.7L353.6,778.9L315.3,768.2L276.9,757.4L314.0,728.4Z" fill="#eccf96" fill-rule="evenodd" fill-opacity="1.0" stroke="#9c7b52" stroke-width="0.6" clip-path="url(#gleba)" stroke-linejoin="round"/><path d="M423.4,479.6L448.5,459.9L458.1,452.4L479.4,479.6L444.7,506.8L423.4,479.6Z" fill="#eccf96" fill-rule="evenodd" fill-opacity="1.0" stroke="#9c7b52" stroke-width="0.6" clip-path="url(#gleba)" stroke-linejoin="round"/><path d="M447.2,522.8L453.5,517.9L444.7,506.8L479.4,479.6L500.7,506.8L470.2,530.8L470.2,522.8L470.2,522.8L470.2,522.8L447.2,522.8Z" fill="#eccf96" fill-rule="evenodd" fill-opacity="1.0" stroke="#9c7b52" stroke-width="0.6" clip-path="url(#gleba)" stroke-linejoin="round"/><path d="M478.1,549.4L476.4,547.2L470.2,552.1L470.2,530.8L500.7,506.8L522.1,534.0L493.6,556.3L475.1,554.6L471.8,554.2L478.1,549.4Z" fill="#cd7f4a" fill-rule="evenodd" fill-opacity="1.0" stroke="#9c7b52" stroke-width="0.6" clip-path="url(#gleba)" stroke-linejoin="round"/><path d="M458.1,452.4L485.3,431.2L499.1,420.3L518.1,444.6L477.1,476.7L458.1,452.4Z" fill="#cd7f4a" fill-rule="evenodd" fill-opacity="1.0" stroke="#9c7b52" stroke-width="0.6" clip-path="url(#gleba)" stroke-linejoin="round"/><path d="M496.1,500.9L477.1,476.7L518.1,444.6L537.1,468.9L496.1,500.9Z" fill="#eccf96" fill-rule="evenodd" fill-opacity="1.0" stroke="#9c7b52" stroke-width="0.6" clip-path="url(#gleba)" stroke-linejoin="round"/><path d="M515.1,525.2L496.1,500.9L537.1,468.9L556.1,493.2L515.1,525.2Z" fill="#dfab6b" fill-rule="evenodd" fill-opacity="1.0" stroke="#9c7b52" stroke-width="0.6" clip-path="url(#gleba)" stroke-linejoin="round"/><path d="M534.1,549.5L515.1,525.2L556.1,493.2L575.1,517.4L534.1,549.5Z" fill="#cd7f4a" fill-rule="evenodd" fill-opacity="1.0" stroke="#9c7b52" stroke-width="0.6" clip-path="url(#gleba)" stroke-linejoin="round"/><path d="M545.8,561.5L543.4,561.2L534.1,549.5L575.1,517.4L594.1,541.7L564.3,565.0L545.8,561.5Z" fill="#cd7f4a" fill-rule="evenodd" fill-opacity="1.0" stroke="#9c7b52" stroke-width="0.6" clip-path="url(#gleba)" stroke-linejoin="round"/><path d="M381.8,542.6L358.1,540.2L347.1,539.4L409.8,490.2L411.0,489.3L426.3,508.9L383.0,542.8L381.8,542.6Z" fill="#b25b38" fill-rule="evenodd" fill-opacity="1.0" stroke="#9c7b52" stroke-width="0.6" clip-path="url(#gleba)" stroke-linejoin="round"/><path d="M820.1,525.5L828.7,518.8L859.3,494.8L864.3,494.8L882.4,519.6L839.8,550.8L827.6,535.2L820.1,525.5Z" fill="#dfab6b" fill-rule="evenodd" fill-opacity="1.0" stroke="#9c7b52" stroke-width="0.6" clip-path="url(#gleba)" stroke-linejoin="round"/><path d="M866.8,494.8L868.7,494.8L901.8,537.1L897.5,540.2L902.3,546.8L860.6,577.3L839.8,550.8L882.4,519.6L864.3,494.8L866.8,494.8Z" fill="#dfab6b" fill-rule="evenodd" fill-opacity="1.0" stroke="#9c7b52" stroke-width="0.6" clip-path="url(#gleba)" stroke-linejoin="round"/><path d="M902.3,546.8L922.2,574.0L881.3,603.8L860.6,577.3L902.3,546.8Z" fill="#dfab6b" fill-rule="evenodd" fill-opacity="1.0" stroke="#9c7b52" stroke-width="0.6" clip-path="url(#gleba)" stroke-linejoin="round"/><path d="M905.8,534.1L931.0,566.4L931.0,586.1L931.0,608.2L916.1,608.2L916.1,620.1L902.1,630.3L892.6,618.2L881.3,603.8L922.2,574.0L897.5,540.2L905.8,534.1Z" fill="#eccf96" fill-rule="evenodd" fill-opacity="1.0" stroke="#9c7b52" stroke-width="0.6" clip-path="url(#gleba)" stroke-linejoin="round"/><path d="M922.9,656.9L946.0,640.0L946.0,640.6L946.0,640.6L946.0,640.6L960.9,640.6L960.9,656.7L960.9,656.7L979.0,656.7L980.2,656.7L943.7,683.4L930.4,666.5L922.9,656.9Z" fill="#eccf96" fill-rule="evenodd" fill-opacity="1.0" stroke="#9c7b52" stroke-width="0.6" clip-path="url(#gleba)" stroke-linejoin="round"/><path d="M943.7,683.4L980.2,656.7L980.3,656.7L982.6,656.7L1001.6,682.8L964.4,709.9L943.7,683.4Z" fill="#eccf96" fill-rule="evenodd" fill-opacity="1.0" stroke="#9c7b52" stroke-width="0.6" clip-path="url(#gleba)" stroke-linejoin="round"/><path d="M841.5,705.3L856.4,705.3L856.4,705.3L856.4,683.8L873.3,705.3L873.1,705.3L871.3,705.3L871.3,752.0L859.5,761.2L828.5,721.5L841.5,721.5L841.5,721.5L841.5,721.5L841.5,705.3L841.5,705.3Z" fill="#eccf96" fill-rule="evenodd" fill-opacity="1.0" stroke="#9c7b52" stroke-width="0.6" clip-path="url(#gleba)" stroke-linejoin="round"/><path d="M901.2,760.6L901.2,766.2L901.2,770.1L901.2,770.1L924.0,770.1L929.1,776.6L912.7,789.4L912.6,789.3L912.0,788.6L911.3,787.9L910.5,787.4L909.7,786.9L908.8,786.5L908.0,786.1L907.0,785.9L906.1,785.8L905.2,785.7L904.2,785.8L903.3,785.9L902.4,786.1L901.5,786.5L900.6,786.9L887.3,794.0L886.5,794.4L885.9,794.9L859.5,761.2L871.3,752.0L871.3,753.9L882.0,753.9L901.2,760.6Z" fill="#eccf96" fill-rule="evenodd" fill-opacity="1.0" stroke="#9c7b52" stroke-width="0.6" clip-path="url(#gleba)" stroke-linejoin="round"/><path d="M730.2,595.9L748.7,581.4L765.8,568.0L784.7,592.2L749.1,620.1L730.2,595.9Z" fill="#eccf96" fill-rule="evenodd" fill-opacity="1.0" stroke="#9c7b52" stroke-width="0.6" clip-path="url(#gleba)" stroke-linejoin="round"/><path d="M768.0,644.3L749.1,620.1L784.7,592.2L803.6,616.4L768.0,644.3Z" fill="#f3e7c3" fill-rule="evenodd" fill-opacity="1.0" stroke="#9c7b52" stroke-width="0.6" clip-path="url(#gleba)" stroke-linejoin="round"/><path d="M765.8,568.0L785.4,552.7L807.6,535.3L826.7,559.6L784.8,592.3L765.8,568.0Z" fill="#dfab6b" fill-rule="evenodd" fill-opacity="1.0" stroke="#9c7b52" stroke-width="0.6" clip-path="url(#gleba)" stroke-linejoin="round"/><path d="M803.8,616.6L784.8,592.3L826.7,559.6L845.7,583.9L803.8,616.6Z" fill="#f3e7c3" fill-rule="evenodd" fill-opacity="1.0" stroke="#9c7b52" stroke-width="0.6" clip-path="url(#gleba)" stroke-linejoin="round"/><path d="M803.8,616.6L845.7,583.9L864.7,608.1L823.3,640.5L822.6,640.5L803.8,616.6Z" fill="#dfab6b" fill-rule="evenodd" fill-opacity="1.0" stroke="#9c7b52" stroke-width="0.6" clip-path="url(#gleba)" stroke-linejoin="round"/><path d="M856.4,640.5L823.3,640.5L864.7,608.1L883.7,632.4L856.4,653.8L856.4,640.5Z" fill="#eccf96" fill-rule="evenodd" fill-opacity="1.0" stroke="#9c7b52" stroke-width="0.6" clip-path="url(#gleba)" stroke-linejoin="round"/><path d="M856.4,683.8L856.4,683.4L856.4,653.8L883.7,632.4L902.7,656.7L860.9,689.5L856.4,683.8Z" fill="#eccf96" fill-rule="evenodd" fill-opacity="1.0" stroke="#9c7b52" stroke-width="0.6" clip-path="url(#gleba)" stroke-linejoin="round"/><path d="M873.3,705.3L860.9,689.5L902.7,656.7L921.7,681.0L890.7,705.3L875.4,705.3L873.3,705.3Z" fill="#eccf96" fill-rule="evenodd" fill-opacity="1.0" stroke="#9c7b52" stroke-width="0.6" clip-path="url(#gleba)" stroke-linejoin="round"/><path d="M640.2,666.3L679.0,636.0L696.5,658.4L657.8,688.7L640.2,666.3Z" fill="#eccf96" fill-rule="evenodd" fill-opacity="1.0" stroke="#9c7b52" stroke-width="0.6" clip-path="url(#gleba)" stroke-linejoin="round"/><path d="M675.3,711.1L657.8,688.7L696.5,658.4L714.0,680.8L675.3,711.1Z" fill="#f3e7c3" fill-rule="evenodd" fill-opacity="1.0" stroke="#9c7b52" stroke-width="0.6" clip-path="url(#gleba)" stroke-linejoin="round"/><path d="M692.8,733.5L675.3,711.1L714.0,680.8L731.6,703.2L692.8,733.5Z" fill="#eccf96" fill-rule="evenodd" fill-opacity="1.0" stroke="#9c7b52" stroke-width="0.6" clip-path="url(#gleba)" stroke-linejoin="round"/><path d="M704.0,747.8L692.8,733.5L731.6,703.2L749.1,725.6L710.4,755.9L704.0,747.8Z" fill="#eccf96" fill-rule="evenodd" fill-opacity="1.0" stroke="#9c7b52" stroke-width="0.6" clip-path="url(#gleba)" stroke-linejoin="round"/><path d="M723.3,772.4L710.4,755.9L749.1,725.6L766.6,748.0L727.9,778.3L723.3,772.4Z" fill="#eccf96" fill-rule="evenodd" fill-opacity="1.0" stroke="#9c7b52" stroke-width="0.6" clip-path="url(#gleba)" stroke-linejoin="round"/><path d="M745.4,800.7L727.9,778.3L766.6,748.0L784.2,770.4L745.4,800.7Z" fill="#eccf96" fill-rule="evenodd" fill-opacity="1.0" stroke="#9c7b52" stroke-width="0.6" clip-path="url(#gleba)" stroke-linejoin="round"/><path d="M763.0,823.1L745.4,800.7L784.2,770.4L801.7,792.7L763.0,823.1Z" fill="#eccf96" fill-rule="evenodd" fill-opacity="1.0" stroke="#9c7b52" stroke-width="0.6" clip-path="url(#gleba)" stroke-linejoin="round"/><path d="M780.5,845.5L763.0,823.1L801.7,792.7L819.2,815.1L780.5,845.5Z" fill="#f3e7c3" fill-rule="evenodd" fill-opacity="1.0" stroke="#9c7b52" stroke-width="0.6" clip-path="url(#gleba)" stroke-linejoin="round"/><path d="M679.0,636.0L717.7,605.7L738.7,632.5L700.0,662.8L679.0,636.0Z" fill="#eccf96" fill-rule="evenodd" fill-opacity="1.0" stroke="#9c7b52" stroke-width="0.6" clip-path="url(#gleba)" stroke-linejoin="round"/><path d="M700.0,662.8L738.7,632.5L755.6,654.0L754.8,654.6L754.2,655.3L753.6,656.1L753.1,656.9L752.7,657.7L752.3,658.6L752.1,659.5L751.9,660.4L751.9,661.4L751.9,662.3L752.0,663.3L752.2,664.2L752.5,665.0L721.0,689.6L700.0,662.8Z" fill="#f3e7c3" fill-rule="evenodd" fill-opacity="1.0" stroke="#9c7b52" stroke-width="0.6" clip-path="url(#gleba)" stroke-linejoin="round"/><path d="M752.5,665.0L752.5,665.1L752.9,666.0L753.4,666.8L753.9,667.6L766.8,684.0L766.8,691.5L766.8,697.0L742.0,716.4L721.0,689.6L752.5,665.0Z" fill="#dfab6b" fill-rule="evenodd" fill-opacity="1.0" stroke="#9c7b52" stroke-width="0.6" clip-path="url(#gleba)" stroke-linejoin="round"/><path d="M763.0,743.3L790.7,721.5L796.2,721.5L804.6,732.3L805.2,733.0L805.9,733.7L806.7,734.3L807.5,734.8L808.3,735.2L809.2,735.5L810.1,735.8L811.1,736.0L812.0,736.0L812.9,736.0L813.9,735.9L814.8,735.7L815.7,735.4L816.6,735.0L817.4,734.5L818.2,734.0L822.7,739.8L784.0,770.1L763.0,743.3Z" fill="#eccf96" fill-rule="evenodd" fill-opacity="1.0" stroke="#9c7b52" stroke-width="0.6" clip-path="url(#gleba)" stroke-linejoin="round"/><path d="M784.0,770.1L822.7,739.8L843.7,766.6L804.9,796.9L784.0,770.1Z" fill="#eccf96" fill-rule="evenodd" fill-opacity="1.0" stroke="#9c7b52" stroke-width="0.6" clip-path="url(#gleba)" stroke-linejoin="round"/><path d="M804.9,796.9L843.7,766.6L864.7,793.4L825.9,823.7L804.9,796.9Z" fill="#eccf96" fill-rule="evenodd" fill-opacity="1.0" stroke="#9c7b52" stroke-width="0.6" clip-path="url(#gleba)" stroke-linejoin="round"/><path d="M884.9,809.2L885.0,809.3L885.7,809.9L886.2,810.3L886.2,818.7L886.2,818.7L886.2,818.7L887.6,818.7L836.8,837.5L825.9,823.7L864.7,793.4L880.0,813.0L884.9,809.2Z" fill="#eccf96" fill-rule="evenodd" fill-opacity="1.0" stroke="#9c7b52" stroke-width="0.6" clip-path="url(#gleba)" stroke-linejoin="round"/><path d="M550.3,736.7L586.0,708.8L605.2,733.4L569.5,761.3L550.3,736.7Z" fill="#eccf96" fill-rule="evenodd" fill-opacity="1.0" stroke="#9c7b52" stroke-width="0.6" clip-path="url(#gleba)" stroke-linejoin="round"/><path d="M583.5,779.2L569.5,761.3L605.2,733.4L624.4,757.9L588.8,785.8L583.5,779.2Z" fill="#f3e7c3" fill-rule="evenodd" fill-opacity="1.0" stroke="#9c7b52" stroke-width="0.6" clip-path="url(#gleba)" stroke-linejoin="round"/><path d="M588.8,785.8L624.4,757.9L643.6,782.5L608.0,810.4L588.8,785.8Z" fill="#f3e7c3" fill-rule="evenodd" fill-opacity="1.0" stroke="#9c7b52" stroke-width="0.6" clip-path="url(#gleba)" stroke-linejoin="round"/><path d="M612.0,815.5L608.0,810.4L643.6,782.5L662.8,807.0L627.2,834.9L612.0,815.5Z" fill="#f3e7c3" fill-rule="evenodd" fill-opacity="1.0" stroke="#9c7b52" stroke-width="0.6" clip-path="url(#gleba)" stroke-linejoin="round"/><path d="M646.4,859.5L627.2,834.9L662.8,807.0L682.0,831.6L646.4,859.5Z" fill="#f3e7c3" fill-rule="evenodd" fill-opacity="1.0" stroke="#9c7b52" stroke-width="0.6" clip-path="url(#gleba)" stroke-linejoin="round"/><path d="M646.4,859.5L682.0,831.6L701.3,856.1L665.6,884.0L653.2,868.1L646.4,859.5Z" fill="#f3e7c3" fill-rule="evenodd" fill-opacity="1.0" stroke="#9c7b52" stroke-width="0.6" clip-path="url(#gleba)" stroke-linejoin="round"/><path d="M586.0,708.8L627.8,676.1L645.9,699.2L604.1,732.0L586.0,708.8Z" fill="#eccf96" fill-rule="evenodd" fill-opacity="1.0" stroke="#9c7b52" stroke-width="0.6" clip-path="url(#gleba)" stroke-linejoin="round"/><path d="M604.1,732.0L645.9,699.2L662.2,720.0L664.1,722.4L622.2,755.1L604.1,732.0Z" fill="#f3e7c3" fill-rule="evenodd" fill-opacity="1.0" stroke="#9c7b52" stroke-width="0.6" clip-path="url(#gleba)" stroke-linejoin="round"/><path d="M640.3,778.3L622.2,755.1L664.1,722.4L682.2,745.5L640.3,778.3Z" fill="#f3e7c3" fill-rule="evenodd" fill-opacity="1.0" stroke="#9c7b52" stroke-width="0.6" clip-path="url(#gleba)" stroke-linejoin="round"/><path d="M640.3,778.3L682.2,745.5L696.1,763.3L700.3,768.7L658.4,801.4L640.3,778.3Z" fill="#f3e7c3" fill-rule="evenodd" fill-opacity="1.0" stroke="#9c7b52" stroke-width="0.6" clip-path="url(#gleba)" stroke-linejoin="round"/><path d="M658.4,801.4L700.3,768.7L704.0,773.4L718.4,791.8L676.6,824.6L658.4,801.4Z" fill="#f3e7c3" fill-rule="evenodd" fill-opacity="1.0" stroke="#9c7b52" stroke-width="0.6" clip-path="url(#gleba)" stroke-linejoin="round"/><path d="M694.7,847.7L676.6,824.6L718.4,791.8L736.5,815.0L694.7,847.7Z" fill="#f3e7c3" fill-rule="evenodd" fill-opacity="1.0" stroke="#9c7b52" stroke-width="0.6" clip-path="url(#gleba)" stroke-linejoin="round"/><path d="M712.8,870.9L694.7,847.7L736.5,815.0L754.7,838.1L712.8,870.9Z" fill="#eccf96" fill-rule="evenodd" fill-opacity="1.0" stroke="#9c7b52" stroke-width="0.6" clip-path="url(#gleba)" stroke-linejoin="round"/><path d="M720.5,880.7L712.8,870.9L754.7,838.1L772.8,861.3L720.5,880.7Z" fill="#eccf96" fill-rule="evenodd" fill-opacity="1.0" stroke="#9c7b52" stroke-width="0.6" clip-path="url(#gleba)" stroke-linejoin="round"/><path d="M477.3,813.6L458.8,808.4L498.3,777.4L528.5,815.9L510.3,830.2L477.3,813.6Z" fill="#eccf96" fill-rule="evenodd" fill-opacity="1.0" stroke="#9c7b52" stroke-width="0.6" clip-path="url(#gleba)" stroke-linejoin="round"/><path d="M498.3,777.4L503.7,773.2L537.9,746.5L558.3,772.5L518.7,803.5L498.3,777.4Z" fill="#eccf96" fill-rule="evenodd" fill-opacity="1.0" stroke="#9c7b52" stroke-width="0.6" clip-path="url(#gleba)" stroke-linejoin="round"/><path d="M518.7,803.5L558.3,772.5L578.7,798.6L539.2,829.6L518.7,803.5Z" fill="#f3e7c3" fill-rule="evenodd" fill-opacity="1.0" stroke="#9c7b52" stroke-width="0.6" clip-path="url(#gleba)" stroke-linejoin="round"/><path d="M558.6,854.4L539.2,829.6L578.7,798.6L599.1,824.7L560.2,855.2L558.6,854.4Z" fill="#eccf96" fill-rule="evenodd" fill-opacity="1.0" stroke="#9c7b52" stroke-width="0.6" clip-path="url(#gleba)" stroke-linejoin="round"/><path d="M560.2,855.2L599.1,824.7L619.6,850.8L592.9,871.7L560.2,855.2Z" fill="#eccf96" fill-rule="evenodd" fill-opacity="1.0" stroke="#9c7b52" stroke-width="0.6" clip-path="url(#gleba)" stroke-linejoin="round"/><path d="M595.3,872.8L592.9,871.7L619.6,850.8L640.0,876.9L610.8,899.7L595.3,872.8Z" fill="#eccf96" fill-rule="evenodd" fill-opacity="1.0" stroke="#9c7b52" stroke-width="0.6" clip-path="url(#gleba)" stroke-linejoin="round"/><path d="M259.2,284.3L244.2,284.3L244.2,275.7L244.3,275.6L285.8,281.7L286.7,282.9L280.4,287.8L274.1,285.3L274.1,285.3L274.1,316.7L295.3,316.7L266.3,339.4L260.9,332.5L244.7,311.8L244.3,312.2L244.2,300.5L259.2,300.5L259.2,300.5L259.2,284.3Z" fill="#eccf96" fill-rule="evenodd" fill-opacity="1.0" stroke="#9c7b52" stroke-width="0.6" clip-path="url(#gleba)" stroke-linejoin="round"/><path d="M266.3,339.4L295.3,316.7L313.2,316.7L326.1,333.1L286.0,364.5L266.3,339.4Z" fill="#dfab6b" fill-rule="evenodd" fill-opacity="1.0" stroke="#9c7b52" stroke-width="0.6" clip-path="url(#gleba)" stroke-linejoin="round"/><path d="M294.1,375.0L286.0,364.5L326.1,333.1L345.7,358.3L305.6,389.7L294.1,375.0Z" fill="#dfab6b" fill-rule="evenodd" fill-opacity="1.0" stroke="#9c7b52" stroke-width="0.6" clip-path="url(#gleba)" stroke-linejoin="round"/><path d="M324.9,414.3L305.6,389.7L345.7,358.3L365.4,383.4L325.3,414.8L324.9,414.3Z" fill="#dfab6b" fill-rule="evenodd" fill-opacity="1.0" stroke="#9c7b52" stroke-width="0.6" clip-path="url(#gleba)" stroke-linejoin="round"/><path d="M325.3,414.8L365.4,383.4L385.1,408.5L345.0,439.9L325.4,415.0L325.3,414.8Z" fill="#dfab6b" fill-rule="evenodd" fill-opacity="1.0" stroke="#9c7b52" stroke-width="0.6" clip-path="url(#gleba)" stroke-linejoin="round"/><path d="M385.1,408.5L404.7,433.6L364.6,465.0L345.0,439.9L385.1,408.5Z" fill="#dfab6b" fill-rule="evenodd" fill-opacity="1.0" stroke="#9c7b52" stroke-width="0.6" clip-path="url(#gleba)" stroke-linejoin="round"/><path d="M404.7,433.6L424.4,458.7L400.1,477.8L384.3,490.2L364.6,465.0L404.7,433.6Z" fill="#eccf96" fill-rule="evenodd" fill-opacity="1.0" stroke="#9c7b52" stroke-width="0.6" clip-path="url(#gleba)" stroke-linejoin="round"/><path d="M368.6,319.2L372.4,324.1L378.6,319.2L378.6,316.7L378.6,324.8L378.6,332.9L363.7,332.9L363.7,349.1L388.9,349.1L357.7,373.5L335.4,345.1L368.6,319.2Z" fill="#eccf96" fill-rule="evenodd" fill-opacity="1.0" stroke="#9c7b52" stroke-width="0.6" clip-path="url(#gleba)" stroke-linejoin="round"/><path d="M388.9,349.1L389.1,349.1L392.0,349.1L413.1,376.0L379.9,401.9L357.7,373.5L388.9,349.1Z" fill="#cd7f4a" fill-rule="evenodd" fill-opacity="1.0" stroke="#9c7b52" stroke-width="0.6" clip-path="url(#gleba)" stroke-linejoin="round"/><path d="M379.9,401.9L413.1,376.0L435.3,404.4L402.2,430.3L379.9,401.9Z" fill="#cd7f4a" fill-rule="evenodd" fill-opacity="1.0" stroke="#9c7b52" stroke-width="0.6" clip-path="url(#gleba)" stroke-linejoin="round"/><path d="M402.2,430.3L435.3,404.4L457.5,432.8L438.8,447.5L424.4,458.7L402.2,430.3Z" fill="#dfab6b" fill-rule="evenodd" fill-opacity="1.0" stroke="#9c7b52" stroke-width="0.6" clip-path="url(#gleba)" stroke-linejoin="round"/><path d="M448.7,320.5L468.0,345.1L431.4,373.8L427.2,368.4L418.2,357.0L427.4,360.0L427.7,359.1L428.4,357.1L429.4,354.1L430.8,349.9L431.9,345.7L432.7,341.7L433.1,337.8L433.1,332.7L448.7,320.5Z" fill="#eccf96" fill-rule="evenodd" fill-opacity="1.0" stroke="#9c7b52" stroke-width="0.6" clip-path="url(#gleba)" stroke-linejoin="round"/><path d="M468.0,345.1L487.3,369.8L450.7,398.4L437.9,382.1L431.4,373.8L468.0,345.1Z" fill="#cd7f4a" fill-rule="evenodd" fill-opacity="1.0" stroke="#9c7b52" stroke-width="0.6" clip-path="url(#gleba)" stroke-linejoin="round"/><path d="M487.3,369.8L506.6,394.4L502.8,397.4L496.0,402.7L475.5,418.7L470.0,423.1L450.7,398.4L487.3,369.8Z" fill="#dfab6b" fill-rule="evenodd" fill-opacity="1.0" stroke="#9c7b52" stroke-width="0.6" clip-path="url(#gleba)" stroke-linejoin="round"/><path d="M145.4,370.8L145.6,370.3L146.0,368.8L146.3,367.2L146.4,365.7L146.4,364.1L146.2,362.6L145.8,361.1L145.3,359.6L144.7,358.2L143.9,356.9L143.0,355.6L142.0,354.4L140.9,353.4L139.7,352.4L138.4,351.6L137.0,350.9L135.5,350.3L134.0,349.9L133.7,349.9L171.9,320.0L190.1,343.1L148.5,375.7L145.4,370.8Z" fill="#eccf96" fill-rule="evenodd" fill-opacity="1.0" stroke="#9c7b52" stroke-width="0.6" clip-path="url(#gleba)" stroke-linejoin="round"/><path d="M164.4,398.5L151.2,379.9L148.5,375.7L190.1,343.1L208.2,366.3L165.5,399.8L164.4,398.5Z" fill="#b25b38" fill-rule="evenodd" fill-opacity="1.0" stroke="#9c7b52" stroke-width="0.6" clip-path="url(#gleba)" stroke-linejoin="round"/><path d="M179.4,416.0L165.5,399.8L208.2,366.3L226.4,389.5L184.8,422.1L179.4,416.0Z" fill="#b25b38" fill-rule="evenodd" fill-opacity="1.0" stroke="#9c7b52" stroke-width="0.6" clip-path="url(#gleba)" stroke-linejoin="round"/><path d="M195.0,433.8L184.8,422.1L226.4,389.5L244.5,412.7L204.0,444.4L195.0,433.8Z" fill="#cd7f4a" fill-rule="evenodd" fill-opacity="1.0" stroke="#9c7b52" stroke-width="0.6" clip-path="url(#gleba)" stroke-linejoin="round"/><path d="M210.2,451.8L204.0,444.4L244.5,412.7L262.7,435.8L222.9,467.0L210.2,451.8Z" fill="#eccf96" fill-rule="evenodd" fill-opacity="1.0" stroke="#9c7b52" stroke-width="0.6" clip-path="url(#gleba)" stroke-linejoin="round"/><path d="M225.3,469.9L222.9,467.0L262.7,435.8L280.8,459.0L241.9,489.5L240.4,487.8L225.3,469.9Z" fill="#eccf96" fill-rule="evenodd" fill-opacity="1.0" stroke="#9c7b52" stroke-width="0.6" clip-path="url(#gleba)" stroke-linejoin="round"/><path d="M280.8,459.0L299.0,482.2L262.7,510.6L255.6,504.7L241.9,489.5L280.8,459.0Z" fill="#eccf96" fill-rule="evenodd" fill-opacity="1.0" stroke="#9c7b52" stroke-width="0.6" clip-path="url(#gleba)" stroke-linejoin="round"/><path d="M299.0,482.2L317.1,505.4L335.2,528.6L325.0,536.6L312.9,534.2L291.5,527.8L272.1,518.6L262.7,510.6L299.0,482.2Z" fill="#eccf96" fill-rule="evenodd" fill-opacity="1.0" stroke="#9c7b52" stroke-width="0.6" clip-path="url(#gleba)" stroke-linejoin="round"/><path d="M214.4,315.2L214.4,316.7L238.5,316.7L232.3,321.6L241.1,332.8L204.4,361.5L185.8,337.6L214.4,315.2Z" fill="#f3e7c3" fill-rule="evenodd" fill-opacity="1.0" stroke="#9c7b52" stroke-width="0.6" clip-path="url(#gleba)" stroke-linejoin="round"/><path d="M204.4,361.5L241.1,332.8L249.7,343.9L259.7,356.7L223.1,385.3L204.4,361.5Z" fill="#dfab6b" fill-rule="evenodd" fill-opacity="1.0" stroke="#9c7b52" stroke-width="0.6" clip-path="url(#gleba)" stroke-linejoin="round"/><path d="M223.1,385.3L259.7,356.7L278.4,380.5L241.8,409.2L223.1,385.3Z" fill="#eccf96" fill-rule="evenodd" fill-opacity="1.0" stroke="#9c7b52" stroke-width="0.6" clip-path="url(#gleba)" stroke-linejoin="round"/><path d="M241.8,409.2L278.4,380.5L297.1,404.4L260.5,433.1L241.8,409.2Z" fill="#eccf96" fill-rule="evenodd" fill-opacity="1.0" stroke="#9c7b52" stroke-width="0.6" clip-path="url(#gleba)" stroke-linejoin="round"/><path d="M260.5,433.1L297.1,404.4L311.7,423.1L315.8,428.3L279.2,457.0L260.5,433.1Z" fill="#eccf96" fill-rule="evenodd" fill-opacity="1.0" stroke="#9c7b52" stroke-width="0.6" clip-path="url(#gleba)" stroke-linejoin="round"/><path d="M297.9,480.8L279.2,457.0L315.8,428.3L334.5,452.2L297.9,480.8Z" fill="#eccf96" fill-rule="evenodd" fill-opacity="1.0" stroke="#9c7b52" stroke-width="0.6" clip-path="url(#gleba)" stroke-linejoin="round"/><path d="M316.6,504.7L297.9,480.8L334.5,452.2L353.2,476.0L316.6,504.7Z" fill="#eccf96" fill-rule="evenodd" fill-opacity="1.0" stroke="#9c7b52" stroke-width="0.6" clip-path="url(#gleba)" stroke-linejoin="round"/><path d="M316.6,504.7L353.2,476.0L371.9,499.9L335.2,528.6L316.6,504.7Z" fill="#eccf96" fill-rule="evenodd" fill-opacity="1.0" stroke="#9c7b52" stroke-width="0.6" clip-path="url(#gleba)" stroke-linejoin="round"/><path d="M753.4,666.8L752.9,666.0L752.5,665.1L752.2,664.2L752.0,663.3L751.9,662.3L751.9,661.4L751.9,660.4L752.1,659.5L752.3,658.6L752.7,657.7L753.1,656.9L753.6,656.1L754.2,655.3L754.8,654.6L755.6,654.0L717.7,605.7L640.2,666.3L786.8,853.5L780.6,858.4L772.8,861.3L627.8,676.1L550.3,736.7L674.4,895.2L668.2,900.1L660.4,902.9L537.9,746.5L503.7,773.2L458.8,808.4L451.1,806.3L445.3,798.9L486.2,766.9L326.2,562.5L332.4,557.6L325.4,556.3L257.1,609.7L247.3,617.5L372.7,777.7L366.5,782.5L353.6,778.9L234.8,627.2L153.0,691.3L151.6,690.0L143.0,679.0L247.4,597.3L305.2,552.1L284.6,545.9L261.6,535.0L242.1,518.6L225.9,500.4L210.6,482.3L195.4,464.3L180.3,446.3L164.9,428.6L149.1,410.4L135.1,390.6L129.1,381.0L128.7,381.0L127.2,380.7L125.7,380.3L124.2,379.8L122.9,379.1L121.5,378.3L120.3,377.3L119.2,376.2L118.2,375.1L117.3,373.8L116.5,372.5L115.9,371.0L115.4,369.6L115.1,368.1L114.9,366.5L114.8,365.0L114.9,364.7L108.6,369.6L103.0,362.5L105.5,351.9L191.8,284.3L202.8,284.3L208.4,291.4L133.7,349.9L134.0,349.9L135.5,350.3L137.0,350.9L138.4,351.6L139.7,352.4L140.9,353.4L142.0,354.4L143.0,355.6L143.9,356.9L144.7,358.2L145.3,359.6L145.8,361.1L146.2,362.6L146.4,364.1L146.4,365.7L146.3,367.2L146.0,368.8L145.6,370.3L145.4,370.8L151.2,379.9L164.4,398.5L179.4,416.0L195.0,433.8L210.2,451.8L225.3,469.9L240.4,487.8L255.6,504.7L272.1,518.6L291.5,527.8L312.9,534.2L325.0,536.6L371.9,499.9L232.3,321.6L238.5,316.7L244.3,316.7L244.3,312.2L244.7,311.8L384.3,490.2L400.1,477.8L438.8,447.5L457.5,432.8L392.0,349.1L393.6,349.1L393.6,340.8L393.6,332.9L408.5,332.9L408.5,316.7L412.7,316.7L409.3,335.2L409.0,336.1L408.7,337.0L408.3,337.9L407.8,338.7L407.3,339.5L406.7,340.2L406.0,340.8L405.7,341.0L411.1,347.9L412.3,344.3L413.1,341.3L413.6,338.7L413.8,336.7L413.8,322.9L415.0,318.1L415.7,316.7L423.4,316.7L423.4,306.6L429.5,300.5L438.3,300.5L438.3,282.1L441.2,278.3L464.9,254.6L465.9,253.2L466.4,252.3L466.5,251.9L466.5,167.4L466.4,166.9L465.9,166.0L464.9,164.6L453.3,153.0L453.3,138.6L442.6,138.6L442.6,138.6L438.3,138.6L438.3,106.2L432.8,106.2L432.9,105.7L433.2,104.8L433.6,104.0L434.1,103.2L434.6,102.4L435.2,101.7L435.9,101.0L436.2,100.8L435.5,100.0L433.7,95.0L488.4,52.1L499.8,51.8L498.2,49.8L505.7,43.9L517.6,59.1L510.1,65.0L505.4,58.9L449.7,102.5L450.1,103.0L450.6,103.8L451.0,104.6L451.3,105.5L451.6,106.4L451.7,107.4L451.8,108.3L451.7,109.3L451.6,110.2L448.1,128.8L456.5,124.1L457.0,124.8L457.8,126.4L459.2,128.7L460.7,131.5L462.3,134.0L464.1,136.3L466.1,138.6L479.5,152.0L482.4,155.8L484.6,160.2L485.8,165.0L485.8,254.2L484.6,259.0L482.4,263.4L479.5,267.3L455.8,291.0L454.8,292.3L454.3,293.3L454.2,293.7L454.2,296.3L453.0,301.2L450.8,305.5L447.9,309.4L434.7,322.5L433.7,323.9L433.3,324.8L433.1,325.3L433.1,337.8L432.7,341.7L431.9,345.7L430.8,349.9L429.4,354.1L428.4,357.1L427.7,359.1L427.4,360.0L418.2,357.0L470.0,423.1L475.5,418.7L496.0,402.7L502.8,397.4L509.6,392.0L609.7,313.7L617.1,323.2L617.5,324.1L617.5,327.6L599.6,341.7L762.9,550.3L775.7,540.2L844.8,486.2L854.4,487.1L856.4,489.7L856.4,494.8L859.3,494.8L820.1,525.5L965.5,711.2L959.2,716.1L948.2,714.8L946.0,712.0L946.0,705.3L940.8,705.3L807.6,535.3L785.4,552.7L748.7,581.4L730.2,595.9L773.9,651.9L769.1,655.7L770.0,656.7L766.8,656.7L766.8,684.0L753.9,667.6L753.4,666.8ZM739.0,569.0L750.5,560.0L587.1,351.4L519.4,404.4L512.5,409.8L511.5,410.6L674.8,619.2L739.0,569.0ZM626.1,592.0L625.1,593.1L623.9,594.2L622.6,595.1L621.3,595.8L619.9,596.4L618.4,596.9L616.9,597.3L615.3,597.5L613.8,597.5L612.2,597.4L610.7,597.1L609.2,596.7L607.8,596.2L606.4,595.5L605.1,594.6L603.9,593.7L602.7,592.6L601.7,591.5L600.8,590.2L600.7,590.0L589.4,588.7L565.9,584.9L543.0,580.6L520.0,578.2L499.1,576.2L586.7,688.2L662.4,628.9L629.2,586.5L629.2,586.7L628.6,588.1L627.9,589.5L627.1,590.8L626.1,592.0ZM356.4,559.4L343.1,558.4L498.7,757.1L574.3,697.9L482.1,580.1L488.3,575.2L473.1,573.8L449.5,571.0L426.1,567.9L402.8,564.7L379.6,561.8L356.4,559.4ZM411.0,489.3L409.8,490.2L347.1,539.4L358.1,540.2L381.8,542.6L405.3,545.6L428.6,548.7L451.9,551.9L470.2,554.0L470.2,552.1L476.4,547.2L478.1,549.4L471.8,554.2L475.1,554.6L498.4,556.8L522.0,559.0L545.8,561.5L569.2,565.9L592.0,569.6L602.8,570.8L603.2,570.3L604.4,569.3L605.7,568.4L607.0,567.6L608.4,567.0L609.9,566.5L611.4,566.2L613.0,566.0L613.1,566.0L499.1,420.3L485.3,431.2L448.5,459.9L423.4,479.6L453.5,517.9L447.2,522.8L437.2,522.8L411.0,489.3Z" fill="#faf8f2" fill-rule="evenodd" fill-opacity="1.0" stroke="#7a7264" stroke-width="1.0" clip-path="url(#gleba)" stroke-linejoin="round"/><path d="M244.2,275.6L245.4,275.8L255.2,277.6L274.1,285.3L289.0,291.3L298.1,295.0L295.2,285.6L295.2,285.6L294.8,284.3L289.1,265.9L289.0,265.8L286.6,258.9L286.6,258.9L286.6,258.9L284.1,251.9L282.3,246.8L274.1,229.7L273.1,227.7L267.5,219.6L260.0,208.6L259.2,207.7L255.7,203.4L245.7,191.1L244.2,189.5L242.1,187.2L232.3,176.2L229.3,172.9L227.6,171.0L214.4,156.2L213.1,154.8L199.5,139.5L198.6,138.6L192.9,132.2L184.5,119.6L175.7,106.2L169.6,97.0L164.9,90.0L154.7,74.5L147.7,64.0L154.7,64.2L199.5,65.7L229.3,66.6L231.6,66.7L266.5,57.6L299.2,49.1L387.5,55.4L450.7,53.9L511.7,51.5L625.8,148.3L633.0,154.4L633.0,154.4L633.3,154.6L633.5,154.8L647.4,165.8L653.9,171.0L662.3,177.7L674.2,187.2L674.2,187.2L675.6,188.2L677.2,189.5L677.2,189.5L680.7,192.3L680.7,192.3L691.6,201.0L695.6,203.4L707.1,210.3L722.3,219.6L737.0,228.4L749.1,235.8L749.7,236.1L749.5,243.2L742.1,251.9L737.0,258.0L728.4,268.1L722.0,275.6L719.3,278.9L722.0,280.0L733.1,284.3L751.9,291.7L774.3,300.5L796.7,309.3L815.6,316.7L841.5,326.9L856.9,332.9L871.3,338.6L898.1,349.1L902.3,350.7L950.4,349.7L960.9,373.6L971.5,397.7L975.8,407.6L985.7,430.1L990.8,441.6L999.9,462.4L1005.7,475.5L1008.3,481.5L1012.4,494.8L1020.6,522.0L1026.6,541.5L1027.1,543.4L1035.6,573.3L1040.8,592.0L1042.6,598.1L1050.5,621.9L1051.3,624.4L1051.3,624.4L1060.5,632.4L1065.4,633.4L1102.6,640.6L1140.1,647.8L1150.9,649.9L1140.1,659.5L1125.0,672.9L1110.2,686.2L1106.9,689.1L1095.3,699.5L1088.8,705.3L1080.3,712.8L1077.1,715.7L1070.8,721.5L1065.4,726.4L1053.1,737.7L1050.5,740.1L1035.4,753.9L1020.6,767.4L1017.6,770.1L1017.0,770.7L990.8,780.4L975.0,786.3L946.0,797.0L931.3,802.5L916.1,808.1L887.7,818.7L621.1,917.5L602.6,879.1L595.3,872.8L584.8,867.1L539.7,843.3L503.0,826.4L499.9,824.5L476.7,813.3L413.7,793.0L351.4,774.5L285.8,758.1L236.4,745.3L199.8,735.8L173.6,711.2L151.8,681.1L120.5,638.8L94.1,619.5L49.1,592.6L125.1,268.1L128.2,254.7L154.7,259.5L202.7,268.1L225.4,272.2L244.2,275.6ZM677.2,189.5L677.2,189.5L677.2,189.5L677.2,189.5ZM453.3,154.4L453.3,138.6L453.3,154.4L453.3,154.4ZM438.3,300.5L438.3,259.7L438.3,259.7L438.3,300.5Z" fill="none" stroke="#8f8672" stroke-width="2" stroke-dasharray="10 6" fill-rule="evenodd"/></svg>